<svg width="32" height="32" viewBox="0 0 32 32" fill="none" xmlns="http://www.w3.org/2000/svg">
  <mask id="mask0_2310_101" style="mask-type:luminance" maskUnits="userSpaceOnUse" x="0" y="0" width="32" height="32">
    <path d="M32 0H0V32H32V0Z" fill="white" />
  </mask>
  <g mask="url(#mask0_2310_101)">
    <path d="M29.4737 0H2.52632C1.8563 0 1.21372 0.266165 0.739941 0.739944C0.266165 1.21371 0 1.85629 0 2.52631V29.4737C0 30.1437 0.266165 30.7863 0.739941 31.2601C1.21372 31.7338 1.8563 32 2.52632 32H29.4737C30.1437 32 30.7863 31.7338 31.2601 31.2601C31.7338 30.7863 32 30.1437 32 29.4737V2.52631C32 1.85629 31.7338 1.21371 31.2601 0.739944C30.7863 0.266165 30.1437 0 29.4737 0Z" fill="#343A40" />
    <mask id="mask1_2310_101" style="mask-type:luminance" maskUnits="userSpaceOnUse" x="7" y="7" width="18" height="19">
      <path d="M25 7.29541H7V25.2954H25V7.29541Z" fill="white" />
    </mask>
    <g mask="url(#mask1_2310_101)">
      <path d="M24.9825 12.5875C24.9403 11.6311 24.7857 10.9735 24.5641 10.4038C24.3356 9.79899 23.9839 9.25754 23.5232 8.80742C23.0731 8.3503 22.5281 7.9951 21.9303 7.77011C21.3573 7.54855 20.7032 7.39389 19.7468 7.35172C18.7832 7.30598 18.4773 7.29541 16.0335 7.29541C13.5897 7.29541 13.2838 7.30598 12.3238 7.34815C11.3674 7.39032 10.7099 7.54512 10.1402 7.76654C9.53533 7.9951 8.99387 8.34673 8.54375 8.80742C8.08663 9.25754 7.73157 9.80259 7.50644 10.4003C7.28489 10.9735 7.13022 11.6275 7.08805 12.5839C7.04231 13.5474 7.03174 13.8533 7.03174 16.2972C7.03174 18.741 7.04231 19.0469 7.08448 20.0069C7.12665 20.9633 7.28145 21.6208 7.50301 22.1906C7.73157 22.7953 8.08663 23.3368 8.54375 23.7869C8.99387 24.244 9.5389 24.5992 10.1367 24.8242C10.7099 25.0458 11.3638 25.2004 12.3204 25.2426C13.2802 25.2849 13.5862 25.2954 16.0301 25.2954C18.4739 25.2954 18.7798 25.2849 19.7398 25.2426C20.6962 25.2004 21.3537 25.0458 21.9233 24.8242C23.133 24.3565 24.0894 23.4001 24.5571 22.1906C24.7785 21.6174 24.9333 20.9633 24.9755 20.0069C25.0177 19.0469 25.0283 18.741 25.0283 16.2972C25.0283 13.8533 25.0247 13.5474 24.9825 12.5875ZM23.3616 19.9366C23.3228 20.8156 23.1752 21.2903 23.0521 21.6068C22.7497 22.391 22.1273 23.0133 21.3431 23.3158C21.0267 23.4389 20.5485 23.5865 19.6729 23.6251C18.7235 23.6674 18.4387 23.6779 16.0371 23.6779C13.6354 23.6779 13.3471 23.6674 12.4011 23.6251C11.522 23.5865 11.0473 23.4389 10.7309 23.3158C10.3406 23.1716 9.98544 22.943 9.69713 22.6441C9.39824 22.3522 9.16968 22.0006 9.02546 21.6104C8.90239 21.2939 8.75473 20.8156 8.71613 19.9401C8.67383 18.9907 8.66339 18.7058 8.66339 16.3042C8.66339 13.9025 8.67383 13.6142 8.71613 12.6684C8.75473 11.7893 8.90239 11.3146 9.02546 10.9981C9.16968 10.6078 9.39824 10.2527 9.7007 9.96419C9.99245 9.66539 10.3441 9.43679 10.7344 9.2927C11.0509 9.16963 11.5292 9.02197 12.4047 8.98324C13.3541 8.94107 13.639 8.93049 16.0405 8.93049C18.4457 8.93049 18.7305 8.94107 19.6765 8.98324C20.5555 9.02197 21.0302 9.16963 21.3467 9.2927C21.7369 9.43679 22.0921 9.66539 22.3804 9.96419C22.6793 10.2561 22.9079 10.6078 23.0521 10.9981C23.1752 11.3146 23.3228 11.7927 23.3616 12.6684C23.4037 13.6178 23.4143 13.9025 23.4143 16.3042C23.4143 18.7058 23.4037 18.9872 23.3616 19.9366Z" fill="white" />
      <path d="M16.0334 11.6729C13.4806 11.6729 11.4094 13.7439 11.4094 16.2968C11.4094 18.8497 13.4806 20.9208 16.0334 20.9208C18.5863 20.9208 20.6573 18.8497 20.6573 16.2968C20.6573 13.7439 18.5863 11.6729 16.0334 11.6729ZM16.0334 19.2962C14.3773 19.2962 13.0339 17.953 13.0339 16.2968C13.0339 14.6406 14.3773 13.2974 16.0334 13.2974C17.6896 13.2974 19.0328 14.6406 19.0328 16.2968C19.0328 17.953 17.6896 19.2962 16.0334 19.2962Z" fill="white" />
      <path d="M21.9198 11.49C21.9198 12.0862 21.4365 12.5695 20.8402 12.5695C20.2441 12.5695 19.7607 12.0862 19.7607 11.49C19.7607 10.8938 20.2441 10.4106 20.8402 10.4106C21.4365 10.4106 21.9198 10.8938 21.9198 11.49Z" fill="white" />
    </g>
  </g>
</svg>