<svg width="32" height="32" viewBox="0 0 32 32" fill="none" xmlns="http://www.w3.org/2000/svg">
  <mask id="mask0_2310_86" style="mask-type:luminance" maskUnits="userSpaceOnUse" x="0" y="0" width="32" height="32">
    <path d="M32 0H0V32H32V0Z" fill="white" />
  </mask>
  <g mask="url(#mask0_2310_86)">
    <path d="M29.4737 0H2.52632C1.8563 0 1.21372 0.266165 0.739941 0.739944C0.266165 1.21371 0 1.85629 0 2.52631V29.4737C0 30.1437 0.266165 30.7863 0.739941 31.2601C1.21372 31.7338 1.8563 32 2.52632 32H29.4737C30.1437 32 30.7863 31.7338 31.2601 31.2601C31.7338 30.7863 32 30.1437 32 29.4737V2.52631C32 1.85629 31.7338 1.21371 31.2601 0.739944C30.7863 0.266165 30.1437 0 29.4737 0Z" fill="#343A40" />
    <mask id="mask1_2310_86" style="mask-type:luminance" maskUnits="userSpaceOnUse" x="7" y="7" width="18" height="18">
      <path d="M24.6851 7.98047H7.68506V24.9805H24.6851V7.98047Z" fill="white" />
    </mask>
    <g mask="url(#mask1_2310_86)">
      <path d="M17.7674 15.1788L23.96 7.98047H22.4925L17.1156 14.2307L12.821 7.98047H7.86768L14.3619 17.4319L7.86768 24.9805H9.3352L15.0134 18.38L19.5488 24.9805H24.5021L17.7674 15.1788ZM15.7575 17.5152L15.0995 16.574L9.86396 9.08519H12.118L16.3431 15.1289L17.0011 16.0701L22.4932 23.926H20.2392L15.7575 17.5152Z" fill="white" />
    </g>
  </g>
</svg>