<svg width="32" height="32" viewBox="0 0 32 32" fill="none" xmlns="http://www.w3.org/2000/svg">
  <mask id="mask0_2310_96" style="mask-type:luminance" maskUnits="userSpaceOnUse" x="0" y="0" width="32" height="32">
    <path d="M32 0H0V32H32V0Z" fill="white" />
  </mask>
  <g mask="url(#mask0_2310_96)">
    <path d="M29.4737 0H2.52632C1.8563 0 1.21372 0.266165 0.739941 0.739944C0.266165 1.21371 0 1.85629 0 2.52631V29.4737C0 30.1437 0.266165 30.7863 0.739941 31.2601C1.21372 31.7338 1.8563 32 2.52632 32H29.4737C30.1437 32 30.7863 31.7338 31.2601 31.2601C31.7338 30.7863 32 30.1437 32 29.4737V2.52631C32 1.85629 31.7338 1.21371 31.2601 0.739944C30.7863 0.266165 30.1437 0 29.4737 0ZM11.3474 24.4211H7.85684V13.1768H11.3474V24.4211ZM9.6 11.6421C9.19829 11.6438 8.8051 11.5263 8.47013 11.3045C8.13517 11.0828 7.87347 10.7667 7.71811 10.3962C7.56275 10.0258 7.5207 9.61757 7.59729 9.22323C7.67388 8.82888 7.86565 8.46609 8.14838 8.18071C8.43111 7.89533 8.7921 7.70018 9.18572 7.61992C9.57934 7.53966 9.98791 7.5779 10.3598 7.7298C10.7317 7.8817 11.0502 8.14044 11.2751 8.47333C11.4999 8.80621 11.6211 9.19828 11.6232 9.6C11.6243 10.1387 11.4121 10.6559 11.033 11.0385C10.6539 11.4212 10.1387 11.6382 9.6 11.6421ZM24.4211 24.4211H20.9326V18.9474C20.9326 17.6421 20.9074 15.9684 19.1179 15.9684C17.3284 15.9684 17.0126 17.3874 17.0126 18.8526V24.4211H13.5368V13.1768H16.8863V14.7095H16.9347C17.4 13.8253 18.5389 12.8947 20.2379 12.8947C23.7705 12.8947 24.4211 15.2105 24.4211 18.2442V24.4211Z" fill="#343A40" />
  </g>
</svg>