<svg width="32" height="32" viewBox="0 0 32 32" fill="none" xmlns="http://www.w3.org/2000/svg">
  <path d="M29.4737 0H2.52632C1.8563 0 1.21372 0.266165 0.739941 0.739944C0.266165 1.21371 0 1.85629 0 2.52631V29.4737C0 30.1437 0.266165 30.7863 0.739941 31.2601C1.21372 31.7338 1.8563 32 2.52632 32H29.4737C30.1437 32 30.7863 31.7338 31.2601 31.2601C31.7338 30.7863 32 30.1437 32 29.4737V2.52631C32 1.85629 31.7338 1.21371 31.2601 0.739944C30.7863 0.266165 30.1437 0 29.4737 0ZM20.5516 10.4126C20.5516 10.7137 20.4253 10.8337 20.1305 10.8337C19.5642 10.8337 18.9979 10.8337 18.4337 10.8568C17.8695 10.88 17.5621 11.1368 17.5621 11.7263C17.5495 12.3579 17.5621 12.9768 17.5621 13.6211H19.9853C20.3305 13.6211 20.4484 13.739 20.4484 14.0863C20.4484 14.9284 20.4484 15.7747 20.4484 16.6253C20.4484 16.9684 20.3389 17.0758 19.9916 17.0779H17.5411V23.9284C17.5411 24.2947 17.4274 24.4105 17.0653 24.4105H14.4295C14.1116 24.4105 13.9874 24.2863 13.9874 23.9684V17.0884H11.8947C11.5663 17.0884 11.4484 16.9684 11.4484 16.6379C11.4484 15.786 11.4484 14.9347 11.4484 14.0842C11.4484 13.7558 11.5726 13.6316 11.8968 13.6316H13.9874V11.7895C13.9626 10.962 14.1611 10.1432 14.5621 9.41894C14.979 8.6878 15.647 8.13275 16.4421 7.85684C16.9581 7.66908 17.5035 7.57497 18.0526 7.57894H20.1221C20.4189 7.57894 20.5432 7.70947 20.5432 8C20.5537 8.81052 20.5537 9.61263 20.5516 10.4126Z" fill="#343A40" />
</svg>