<svg width="14" height="32" viewBox="0 0 14 32" fill="none" xmlns="http://www.w3.org/2000/svg">
  <path d="M12.0801 30.6117C12.1943 30.5438 12.2228 30.3841 12.1346 30.2835C11.677 29.7514 10.2328 28.3434 7.98822 28.5555C6.08776 28.7365 5.22275 28.7347 4.86762 28.7133C4.78025 28.7088 4.72672 28.808 4.77316 28.8769C5.36196 29.7144 8.01837 32.9971 12.0745 30.6085L12.0801 30.6117Z" fill="#FAB005" />
  <path d="M8.88231 27.1887C8.99952 27.1416 9.02297 26.9905 8.93219 26.9075C8.47047 26.4993 7.47801 25.3025 6.93692 24.6227C6.22389 23.7211 4.16954 23.4804 2.08052 23.5334C2.08052 23.5334 1.93505 23.5451 1.76447 23.4964C1.62251 23.4565 1.49365 23.5888 1.5412 23.7272C1.86465 24.6411 2.82002 26.6815 4.99644 27.2109C7.12686 27.729 8.38783 27.3893 8.8795 27.1871L8.88231 27.1887Z" fill="#FAB005" />
  <path d="M6.26984 22.5765L4.69915 20.1733C4.50989 19.8841 4.23553 19.6645 3.91325 19.5473C3.06768 19.239 1.34426 18.6458 0.243842 18.5386C0.158125 18.5313 0.0842543 18.6072 0.0972567 18.6951C0.176724 19.2653 0.52374 21.119 1.73973 21.7599C2.98947 22.4202 5.53252 22.6522 6.19973 22.7044C6.26807 22.7095 6.30835 22.6332 6.27265 22.5781L6.26984 22.5765Z" fill="#FAB005" />
  <path d="M5.01314 18.8696L4.10551 16.1296C3.99655 15.7988 3.78777 15.5175 3.50461 15.3196C2.76993 14.7997 1.25819 13.7815 0.225018 13.3955C0.145276 13.3648 0.0550385 13.4237 0.0461969 13.5104C-0.0221186 14.0833 -0.154063 15.9743 0.853171 16.9118C1.88802 17.8728 4.27995 18.7563 4.90929 18.978C4.97216 18.999 5.03328 18.9386 5.01149 18.8725L5.01314 18.8696Z" fill="#FAB005" />
  <path d="M4.68486 14.5352L4.2028 11.8764C4.14431 11.5555 3.98865 11.2667 3.75516 11.0477C3.14431 10.4692 1.88354 9.32794 0.98054 8.83338C0.91024 8.79279 0.821008 8.83695 0.798106 8.91558C0.66165 9.43767 0.295006 11.1702 1.10343 12.1728C1.93501 13.2002 4.02207 14.3324 4.57523 14.6212C4.62866 14.652 4.69209 14.6006 4.6832 14.5381L4.68486 14.5352Z" fill="#FAB005" />
  <path d="M4.61049 10.7416L4.70313 8.3342C4.71264 8.04499 4.63542 7.76312 4.47624 7.52579C4.05988 6.90268 3.19025 5.66195 2.50528 5.05599C2.45005 5.00879 2.36845 5.02674 2.3348 5.09151C2.117 5.52071 1.46811 6.95634 1.97384 7.98314C2.49212 9.04016 4.08068 10.4319 4.49891 10.792C4.54174 10.8282 4.60532 10.796 4.60768 10.74L4.61049 10.7416Z" fill="#FAB005" />
  <path d="M5.82704 11.31L6.72078 8.74895C6.8281 8.43968 7.03038 8.17374 7.29316 7.98484C7.98746 7.49013 9.41262 6.52181 10.3794 6.14614C10.4559 6.11758 10.5357 6.16753 10.5448 6.24929C10.5976 6.78117 10.6852 8.53868 9.73031 9.42638C8.75037 10.3379 6.50746 11.19 5.91848 11.4049C5.85988 11.4285 5.80399 11.3694 5.82423 11.3084L5.82704 11.31Z" fill="#FAB005" />
  <path d="M13.3426 28.8147C13.6298 28.2457 14.2664 26.4547 12.9351 23.5849C12.8855 23.4759 12.7426 23.4508 12.6536 23.5334C12.0228 24.126 10.1045 26.3252 13.0682 28.8744C13.1566 28.9484 13.2902 28.9184 13.3426 28.8147Z" fill="#FAB005" />
  <path d="M10.3873 25.9067C10.4688 26.0188 10.6438 25.9821 10.6752 25.8433C10.8323 25.1685 11.2255 23.7537 11.4801 22.9554C11.7102 22.2386 11.4193 20.6775 11.2546 20.0275C11.224 19.8988 11.0613 19.8623 10.9753 19.9658C10.3341 20.7322 8.49109 23.327 10.3845 25.9051L10.3873 25.9067Z" fill="#FAB005" />
  <path d="M8.3607 22.9034C8.41277 22.9756 8.52515 22.9563 8.55583 22.8707C8.78324 22.2365 9.53343 20.3657 9.9034 19.6339C10.2949 18.8649 10.5192 15.8982 9.9908 15.1186C9.4703 14.3511 5.52142 19.0023 8.36235 22.9006L8.3607 22.9034Z" fill="#FAB005" />
  <path d="M6.65181 18.0705C6.88086 17.4334 7.51138 16.0102 9.03659 14.3036C9.22807 14.0888 9.37672 13.8378 9.47259 13.5679C9.67644 13.0005 9.95959 11.9775 9.88969 10.8388C9.88236 10.6891 9.72936 10.597 9.59493 10.6609C8.84977 11.023 6.77261 12.166 6.08308 13.9187C6.04411 14.0187 6.01639 14.1252 6.00042 14.2308C5.92291 14.7027 5.79968 16.0591 6.42112 18.0674C6.45727 18.1801 6.61183 18.1852 6.65015 18.0733L6.65181 18.0705Z" fill="#FAB005" />
  <path d="M13.7255 31.6842C13.676 31.5102 13.6248 31.4041 13.5661 31.2784C13.5087 31.1571 13.445 31.04 13.3798 30.9258C13.2492 30.6973 13.1137 30.4775 12.9676 30.263C12.6798 29.8328 12.3809 29.4153 12.0648 29.0147C11.4343 28.2105 10.7821 27.4244 10.1016 26.6679C9.93325 26.4789 9.756 26.2924 9.59547 26.0963L9.1195 25.5115C8.95565 25.3213 8.82907 25.0989 8.68079 24.8947C8.5403 24.6834 8.39036 24.482 8.26825 24.2585L7.88633 23.6017C7.75643 23.3851 7.65551 23.1507 7.53952 22.923C7.43247 22.6928 7.30423 22.4734 7.21225 22.2365L6.91676 21.534C6.14346 19.6523 5.63521 17.6558 5.36744 15.6258L5.27026 14.8655L5.21445 14.0985C5.16456 13.5874 5.17457 13.0765 5.16721 12.5633C5.15682 12.3085 5.17722 12.0524 5.19034 11.7959L5.2325 11.028L5.32844 10.2644C5.35893 10.0102 5.38661 9.75449 5.44904 9.5035C5.58997 8.76584 5.79875 8.04057 6.05468 7.33104C6.4155 6.64762 7.11042 5.58685 8.33738 4.5462C10.0794 3.06808 8.82884 0.727187 8.44492 0.0998463C8.38989 0.00683818 8.27093 -0.0273981 8.17391 0.0237499C7.5461 0.357835 5.4016 1.69541 5.797 4.08224C5.97618 5.16162 6.01384 6.25881 5.84482 7.34383C5.84116 7.37616 5.83302 7.40973 5.82935 7.44206C5.76798 7.6133 5.70827 7.78166 5.66262 7.95815C5.5901 8.20714 5.49739 8.45214 5.4434 8.70801L5.28308 9.47274C5.21899 9.72661 5.19413 9.98398 5.16198 10.241L5.06388 11.0148L5.02121 11.7901C5.00644 12.0495 4.98885 12.3072 4.99758 12.5649C5.0061 13.0826 4.99558 13.6009 5.04547 14.1119L5.10078 14.8863L5.19746 15.654C5.47317 17.6961 5.96419 19.7095 6.73598 21.6133L7.03096 22.3232C7.12576 22.5617 7.25069 22.7869 7.36055 23.0187C7.47654 23.2464 7.57581 23.4836 7.70686 23.7047L8.08942 24.3734C8.20988 24.5998 8.36378 24.8073 8.50262 25.0214C8.65205 25.2302 8.77698 25.4554 8.94479 25.6518C9.26535 26.0512 9.58872 26.4522 9.92088 26.8315C10.5769 27.6045 11.2235 28.3873 11.8072 29.2142C12.1021 29.6255 12.3847 30.0451 12.6372 30.478C12.7643 30.693 12.8836 30.9149 12.9912 31.1378C13.0436 31.2484 13.0987 31.3606 13.1422 31.4737C13.1861 31.5794 13.2325 31.7134 13.2465 31.7865L13.2506 31.8119C13.2506 31.8119 13.2529 31.8209 13.2541 31.8254C13.292 31.9544 13.4259 32.0279 13.5527 31.9901C13.6811 31.9494 13.7562 31.8129 13.721 31.6854L13.7255 31.6842Z" fill="#FAB005" />
</svg>