<svg width="14" height="32" viewBox="0 0 14 32" fill="none" xmlns="http://www.w3.org/2000/svg">
  <path d="M1.66867 30.6117C1.55442 30.5438 1.526 30.3841 1.61412 30.2835C2.07176 29.7514 3.516 28.3434 5.76054 28.5555C7.66101 28.7365 8.52602 28.7347 8.88114 28.7133C8.96851 28.7088 9.02205 28.808 8.9756 28.8769C8.38681 29.7144 5.73039 32.9971 1.67429 30.6085L1.66867 30.6117Z" fill="#FAB005" />
  <path d="M4.86645 27.1887C4.74925 27.1416 4.72579 26.9905 4.81658 26.9075C5.27829 26.4993 6.27075 25.3025 6.81185 24.6227C7.52487 23.7211 9.57923 23.4804 11.6682 23.5334C11.6682 23.5334 11.8137 23.5451 11.9843 23.4964C12.1263 23.4565 12.2551 23.5888 12.2076 23.7272C11.8841 24.6411 10.9287 26.6815 8.75233 27.2109C6.62191 27.729 5.36093 27.3893 4.86926 27.1871L4.86645 27.1887Z" fill="#FAB005" />
  <path d="M7.47893 22.5765L9.04962 20.1733C9.23887 19.8841 9.51324 19.6645 9.83552 19.5473C10.6811 19.239 12.4045 18.6458 13.5049 18.5386C13.5906 18.5313 13.6645 18.6072 13.6515 18.6951C13.572 19.2653 13.225 21.119 12.009 21.7599C10.7593 22.4202 8.21624 22.6522 7.54903 22.7044C7.48069 22.7095 7.44041 22.6332 7.47611 22.5781L7.47893 22.5765Z" fill="#FAB005" />
  <path d="M8.73562 18.8696L9.64326 16.1296C9.75221 15.7988 9.96099 15.5175 10.2442 15.3196C10.9788 14.7997 12.4906 13.7815 13.5237 13.3955C13.6035 13.3648 13.6937 13.4237 13.7026 13.5104C13.7709 14.0833 13.9028 15.9743 12.8956 16.9118C11.8607 17.8728 9.46881 18.7563 8.83947 18.978C8.7766 18.999 8.71549 18.9386 8.73728 18.8725L8.73562 18.8696Z" fill="#FAB005" />
  <path d="M9.06391 14.5352L9.54597 11.8764C9.60446 11.5555 9.76011 11.2667 9.99361 11.0477C10.6045 10.4692 11.8652 9.32794 12.7682 8.83338C12.8385 8.79279 12.9278 8.83695 12.9507 8.91558C13.0871 9.43767 13.4538 11.1702 12.6453 12.1728C11.8138 13.2002 9.72669 14.3324 9.17353 14.6212C9.1201 14.652 9.05668 14.6006 9.06556 14.5381L9.06391 14.5352Z" fill="#FAB005" />
  <path d="M9.13827 10.7416L9.04563 8.3342C9.03613 8.04499 9.11335 7.76312 9.27252 7.52579C9.68888 6.90268 10.5585 5.66195 11.2435 5.05599C11.2987 5.00879 11.3803 5.02674 11.414 5.09151C11.6318 5.52071 12.2807 6.95634 11.7749 7.98314C11.2566 9.04016 9.66808 10.4319 9.24985 10.792C9.20702 10.8282 9.14345 10.796 9.14108 10.74L9.13827 10.7416Z" fill="#FAB005" />
  <path d="M7.92173 11.31L7.02799 8.74895C6.92067 8.43968 6.71839 8.17374 6.4556 7.98484C5.7613 7.49013 4.33615 6.52181 3.36938 6.14614C3.29291 6.11758 3.21302 6.16753 3.20398 6.24929C3.15112 6.78117 3.06352 8.53868 4.01845 9.42638C4.99839 10.3379 7.2413 11.19 7.83029 11.4049C7.88889 11.4285 7.94478 11.3694 7.92454 11.3084L7.92173 11.31Z" fill="#FAB005" />
  <path d="M0.406176 28.8147C0.118921 28.2457 -0.517682 26.4547 0.813666 23.5849C0.863224 23.4759 1.00619 23.4508 1.09512 23.5334C1.72595 24.126 3.64427 26.3252 0.680606 28.8744C0.592129 28.9484 0.458555 28.9184 0.406176 28.8147Z" fill="#FAB005" />
  <path d="M3.36144 25.9067C3.27995 26.0188 3.10499 25.9821 3.0736 25.8433C2.9165 25.1685 2.52331 23.7537 2.26863 22.9554C2.03852 22.2386 2.3295 20.6775 2.49414 20.0275C2.52481 19.8988 2.68746 19.8623 2.77343 19.9658C3.41466 20.7322 5.25768 23.327 3.36425 25.9051L3.36144 25.9067Z" fill="#FAB005" />
  <path d="M5.38807 22.9034C5.336 22.9756 5.22361 22.9563 5.19293 22.8707C4.96553 22.2365 4.21533 20.3657 3.84537 19.6339C3.45386 18.8649 3.22953 15.8982 3.75796 15.1186C4.27846 14.3511 8.22735 19.0023 5.38641 22.9006L5.38807 22.9034Z" fill="#FAB005" />
  <path d="M7.09696 18.0705C6.8679 17.4334 6.23739 16.0102 4.71217 14.3036C4.52069 14.0888 4.37205 13.8378 4.27617 13.5679C4.07233 13.0005 3.78917 11.9775 3.85907 10.8388C3.8664 10.6891 4.0194 10.597 4.15383 10.6609C4.89899 11.023 6.97615 12.166 7.66568 13.9187C7.70465 14.0187 7.73238 14.1252 7.74835 14.2308C7.82585 14.7027 7.94908 16.0591 7.32765 18.0674C7.2915 18.1801 7.13693 18.1852 7.09862 18.0733L7.09696 18.0705Z" fill="#FAB005" />
  <path d="M0.0232475 31.6842C0.0727529 31.5102 0.123969 31.4041 0.182615 31.2784C0.240107 31.1571 0.303725 31.04 0.369001 30.9258C0.499552 30.6973 0.635075 30.4775 0.781193 30.263C1.06896 29.8328 1.36783 29.4153 1.68392 29.0147C2.31444 28.2105 2.96666 27.4244 3.6472 26.6679C3.81551 26.4789 3.99277 26.2924 4.1533 26.0963L4.62926 25.5115C4.79311 25.3213 4.91969 25.0989 5.06797 24.8947C5.20847 24.6834 5.3584 24.482 5.48052 24.2585L5.86243 23.6017C5.99233 23.3851 6.09325 23.1507 6.20924 22.923C6.31629 22.6928 6.44453 22.4734 6.53652 22.2365L6.83201 21.534C7.6053 19.6523 8.11355 17.6558 8.38132 15.6258L8.47851 14.8655L8.53431 14.0985C8.58421 13.5874 8.57419 13.0765 8.58156 12.5633C8.59194 12.3085 8.57154 12.0524 8.55843 11.7959L8.51626 11.028L8.42032 10.2644C8.38983 10.0102 8.36215 9.75449 8.29972 9.5035C8.15879 8.76584 7.95002 8.04057 7.69409 7.33104C7.33326 6.64762 6.63834 5.58685 5.41138 4.5462C3.6694 3.06808 4.91992 0.727187 5.30384 0.0998463C5.35888 0.00683818 5.47784 -0.0273981 5.57485 0.0237499C6.20266 0.357835 8.34717 1.69541 7.95176 4.08224C7.77259 5.16162 7.73492 6.25881 7.90394 7.34383C7.90761 7.37616 7.91574 7.40973 7.91941 7.44206C7.98078 7.6133 8.04049 7.78166 8.08615 7.95815C8.15867 8.20714 8.25138 8.45214 8.30537 8.70801L8.46569 9.47274C8.52977 9.72661 8.55464 9.98398 8.58679 10.241L8.68489 11.0148L8.72755 11.7901C8.74233 12.0495 8.75991 12.3072 8.75118 12.5649C8.74267 13.0826 8.75318 13.6009 8.70329 14.1119L8.64798 14.8863L8.5513 15.654C8.2756 17.6961 7.78457 19.7095 7.01279 21.6133L6.7178 22.3232C6.623 22.5617 6.49808 22.7869 6.38821 23.0187C6.27222 23.2464 6.17296 23.4836 6.0419 23.7047L5.65934 24.3734C5.53888 24.5998 5.38498 24.8073 5.24614 25.0214C5.09671 25.2302 4.97178 25.4554 4.80397 25.6518C4.48341 26.0512 4.16004 26.4522 3.82788 26.8315C3.17185 27.6045 2.52525 28.3873 1.94158 29.2142C1.64668 29.6255 1.36404 30.0451 1.11152 30.478C0.984433 30.693 0.865129 30.9149 0.757577 31.1378C0.705206 31.2484 0.650024 31.3606 0.606592 31.4737C0.562658 31.5794 0.516265 31.7134 0.502258 31.7865L0.498141 31.8119C0.498141 31.8119 0.495831 31.8209 0.494676 31.8254C0.456719 31.9544 0.322898 32.0279 0.196102 31.9901C0.0676495 31.9494 -0.00742865 31.8129 0.0277171 31.6854L0.0232475 31.6842Z" fill="#FAB005" />
</svg>