<svg width="127" height="48" viewBox="0 0 127 48" fill="none" xmlns="http://www.w3.org/2000/svg">
  <path d="M24.8357 0H40V15.075H32.5338V7.42229H24.8357V0Z" fill="#FAB005" />
  <path d="M25.3589 25.21C22.399 28.1525 17.6005 28.1525 14.6405 25.21C11.6806 22.2676 11.6806 17.4973 14.6405 14.5549C17.6005 11.6124 22.399 11.6124 25.3589 14.5549C28.3187 17.4973 28.3187 22.2676 25.3589 25.21Z" fill="#FAB005" />
  <path d="M28.8624 28.6928C23.9665 33.5606 16.0337 33.5606 11.1371 28.6928C6.24048 23.8252 6.24048 15.939 11.1371 11.0713C13.5004 8.72193 16.6579 7.42229 20.0002 7.42229V0C14.8811 0 9.76286 1.94118 5.85751 5.82354C-1.9525 13.5883 -1.9525 26.1766 5.85751 33.9414L20.0002 48L34.1419 33.9414C38.0473 30.059 40 24.9709 40 19.882H32.5338C32.5338 23.2046 31.2263 26.3436 28.8624 28.6928Z" fill="#7950F2" />
  <path d="M54.24 23.4933H52V20.4H54.24V18.2133C54.24 16.8089 54.6756 15.76 55.5467 15.0667C56.4356 14.3556 57.5289 14 58.8267 14C59.5022 14 60.1333 14.0889 60.72 14.2667V17.1733L60.5333 17.28C60.1422 17.12 59.7422 17.04 59.3333 17.04C58.9067 17.04 58.5689 17.1556 58.32 17.3867C58.0711 17.6178 57.9467 17.9644 57.9467 18.4267V20.4H66.16V33.7333H62.4267V23.4933H57.9467V33.7333H54.24V23.4933ZM64.2933 18.9333C63.6889 18.9333 63.1733 18.72 62.7467 18.2933C62.3378 17.8667 62.1333 17.36 62.1333 16.7733C62.1333 16.1867 62.3378 15.68 62.7467 15.2533C63.1733 14.8267 63.6889 14.6133 64.2933 14.6133C64.88 14.6133 65.3867 14.8267 65.8133 15.2533C66.24 15.68 66.4533 16.1867 66.4533 16.7733C66.4533 17.36 66.24 17.8667 65.8133 18.2933C65.3867 18.72 64.88 18.9333 64.2933 18.9333Z" fill="#212529" />
  <path d="M69.3396 20.4H73.0729V22.1333C74.3351 20.8 75.8107 20.1333 77.4996 20.1333C78.9396 20.1333 80.0685 20.5511 80.8863 21.3867C81.704 22.2222 82.1129 23.2978 82.1129 24.6133V33.7333H78.3796V25.7067C78.3796 24.9244 78.1929 24.3378 77.8196 23.9467C77.464 23.5378 76.9307 23.3333 76.2196 23.3333C75.5974 23.3333 75.0018 23.5289 74.4329 23.92C73.864 24.2933 73.4107 24.7644 73.0729 25.3333V33.7333H69.3396V20.4Z" fill="#212529" />
  <path d="M91.0098 34C89.9609 34 88.9476 33.7422 87.9698 33.2267C86.992 32.6933 86.1831 31.9022 85.5431 30.8533C84.9209 29.8044 84.6098 28.5422 84.6098 27.0667C84.6098 25.5733 84.9209 24.3111 85.5431 23.28C86.1653 22.2311 86.9831 21.4489 87.9965 20.9333C89.0098 20.4 90.0853 20.1333 91.2231 20.1333C92.7165 20.1333 94.0231 20.5867 95.1431 21.4933V14.2667H98.8765V33.7333H95.1431V32.3467C94.112 33.4489 92.7342 34 91.0098 34ZM91.8898 30.9067C92.8142 30.9067 93.5876 30.6222 94.2098 30.0533C94.832 29.4667 95.1431 28.6844 95.1431 27.7067V26.4267C95.1431 25.4667 94.8231 24.6933 94.1831 24.1067C93.5609 23.52 92.7876 23.2267 91.8631 23.2267C90.832 23.2267 89.9965 23.5644 89.3565 24.24C88.7165 24.9156 88.3965 25.8578 88.3965 27.0667C88.3965 28.2756 88.7165 29.2178 89.3565 29.8933C90.0142 30.5689 90.8587 30.9067 91.8898 30.9067Z" fill="#212529" />
  <path d="M102.178 20.4H105.911V22C106.391 21.4311 106.943 20.9778 107.565 20.64C108.187 20.3022 108.871 20.1333 109.618 20.1333C110.151 20.1333 110.578 20.2044 110.898 20.3467L110.418 23.28L110.231 23.4667C109.876 23.3778 109.574 23.3333 109.325 23.3333C108.596 23.3333 107.938 23.5378 107.351 23.9467C106.765 24.3556 106.285 24.9511 105.911 25.7333V33.7333H102.178V20.4Z" fill="#212529" />
  <path d="M119.207 34C117.82 34 116.576 33.6978 115.474 33.0933C114.371 32.4889 113.509 31.6622 112.887 30.6133C112.265 29.5644 111.954 28.3822 111.954 27.0667C111.954 25.7511 112.265 24.5689 112.887 23.52C113.509 22.4711 114.371 21.6444 115.474 21.04C116.576 20.4356 117.82 20.1333 119.207 20.1333C120.611 20.1333 121.865 20.4356 122.967 21.04C124.069 21.6444 124.931 22.4711 125.554 23.52C126.176 24.5689 126.487 25.7511 126.487 27.0667C126.487 28.3822 126.176 29.5644 125.554 30.6133C124.931 31.6622 124.069 32.4889 122.967 33.0933C121.865 33.6978 120.611 34 119.207 34ZM119.207 30.7733C120.238 30.7733 121.082 30.4444 121.74 29.7867C122.416 29.1111 122.754 28.2044 122.754 27.0667C122.754 25.9289 122.416 25.0311 121.74 24.3733C121.082 23.6978 120.238 23.36 119.207 23.36C118.176 23.36 117.331 23.6978 116.674 24.3733C116.016 25.0311 115.687 25.9289 115.687 27.0667C115.687 28.2044 116.016 29.1111 116.674 29.7867C117.331 30.4444 118.176 30.7733 119.207 30.7733Z" fill="#212529" />
</svg>