<svg width="89" height="24" viewBox="0 0 89 24" fill="none" xmlns="http://www.w3.org/2000/svg">
  <g clip-path="url(#clip0_7_450)">
    <path d="M50.3556 8.08892C50.3556 5.51114 50.4 3.11114 50.5333 0.888916L43.7333 2.1778V2.80003L44.4 2.88892C44.8889 2.93336 45.2 3.11114 45.3778 3.3778C45.5556 3.68892 45.6889 4.13336 45.7778 4.80003C45.8667 6.08892 45.9556 9.02225 45.9111 13.6445C45.9111 18.2222 45.8667 21.1111 45.7778 22.2222C48.2222 22.7556 50.1333 22.9778 51.5556 22.9778C54.2222 22.9778 56.3111 22.2222 57.8222 20.6667C59.3333 19.1556 60.1333 17.0223 60.1333 14.4C60.1333 12.3111 59.5556 10.5778 58.4 9.20003C57.2445 7.82225 55.7778 7.15558 54.0445 7.15558C52.8889 7.15558 51.6889 7.46669 50.3556 8.08892ZM50.4889 21.7778C50.4 20.3556 50.3111 16.0889 50.3111 9.11114C50.7111 8.97781 51.2445 8.88892 51.9111 8.88892C52.9778 8.88892 53.8222 9.42225 54.4445 10.5334C55.0667 11.6445 55.3778 12.9778 55.3778 14.6667C55.3778 16.7556 55.0222 18.4445 54.3111 19.8667C53.6 21.2445 52.7111 21.9556 51.6 21.9556C51.2445 21.8667 50.8889 21.8223 50.4889 21.7778ZM18.2222 1.33336H0.444458V2.22225L1.37779 2.31114C2.0889 2.44447 2.57779 2.71114 2.8889 3.11114C3.20001 3.55558 3.37779 4.26669 3.42224 5.24447C3.77779 10.0445 3.77779 14.5334 3.42224 18.6667C3.33335 19.6445 3.15557 20.3556 2.8889 20.8C2.57779 21.2445 2.0889 21.5111 1.37779 21.6L0.444458 21.7334V22.6222H11.9111V21.7334L10.7111 21.6445C10 21.5556 9.51112 21.2445 9.20001 20.8445C8.8889 20.4 8.71112 19.6889 8.66668 18.7111C8.53335 16.9334 8.44446 14.8889 8.44446 12.6222L10.8445 12.6667C12.1333 12.7111 13.0222 13.6889 13.4667 15.6445H14.3556V8.40003H13.4667C13.0222 10.3111 12.1778 11.2889 10.8445 11.3334L8.44446 11.3778C8.44446 7.37781 8.53335 4.53336 8.66668 2.80003H12.1778C14.6667 2.80003 16.3556 4.40003 17.3333 7.60003L18.4 7.28892L18.2222 1.33336ZM16.1333 15.0222C16.1333 17.3334 16.8 19.2445 18.0889 20.7556C19.3778 22.2667 21.2889 22.9778 23.6889 22.9778C26.0889 22.9778 28.0445 22.2222 29.4667 20.6667C30.8889 19.1556 31.5556 17.2445 31.5556 14.9334C31.5556 12.6222 30.8889 10.7111 29.6 9.20003C28.3111 7.68892 26.4 6.9778 24 6.9778C21.6 6.9778 19.6445 7.73336 18.2222 9.28892C16.8 10.8 16.1333 12.7111 16.1333 15.0222ZM26.0445 9.95558C26.5778 11.2445 26.8 12.9334 26.8 14.9778C26.8 19.6889 25.8222 22 23.9111 22C22.9333 22 22.1778 21.3334 21.6445 20C21.1111 18.6667 20.8889 16.9778 20.8889 14.9778C20.8889 10.3111 21.8667 8.00003 23.7778 8.00003C24.7556 7.95558 25.5111 8.62225 26.0445 9.95558ZM63.6 20.7556C65.0667 22.2222 66.9333 22.9778 69.1556 22.9778C70.5333 22.9778 71.7333 22.7111 72.8 22.1334C73.8667 21.6 74.7111 20.9334 75.2889 20.1334L74.8445 19.6C73.8667 20.3556 72.7556 20.7111 71.4667 20.7111C69.6889 20.7111 68.3111 20.1334 67.3778 18.9334C66.4 17.7334 65.9556 16.2222 66.0445 14.2667H75.5556C75.5556 12.1334 75.0222 10.4 73.9111 9.02225C72.8 7.68892 71.2445 7.02225 69.2445 7.02225C66.7556 7.02225 64.8445 7.82225 63.4667 9.3778C62.0889 10.9334 61.4222 12.8445 61.4222 15.1111C61.4222 17.4222 62.1333 19.2889 63.6 20.7556ZM66.8889 9.60003C67.3778 8.53336 68 8.00003 68.8445 8.00003C70.1778 8.00003 70.8445 9.68892 70.8445 13.1111L66.1333 13.2C66.1778 11.8667 66.4 10.6667 66.8889 9.60003ZM87.5111 7.82225C86.3111 7.28892 84.8 6.9778 82.9778 6.9778C81.1111 6.9778 79.6445 7.46669 78.5333 8.40003C77.4222 9.33336 76.8445 10.4889 76.8445 11.8667C76.8445 13.0667 77.2 14 77.8667 14.6667C78.5333 15.3334 79.6 15.9111 80.9778 16.4C82.2222 16.8445 83.1111 17.2889 83.5556 17.6889C84 18.1334 84.2667 18.6222 84.2667 19.2889C84.2667 19.9111 84.0445 20.4889 83.5556 20.9334C83.1111 21.4222 82.4889 21.6445 81.6889 21.6445C79.7333 21.6445 78.2667 20.2222 77.2445 17.3778L76.4889 17.6L76.6667 22.0445C78.2667 22.6667 80.0445 22.9778 82 22.9778C84.0445 22.9778 85.6 22.5334 86.7556 21.6C87.9111 20.7111 88.4889 19.4222 88.4889 17.8222C88.4889 16.7556 88.2222 15.8667 87.6445 15.2C87.0667 14.5334 86.1333 13.9556 84.8 13.4222C83.3333 12.8889 82.3111 12.4 81.7778 11.9556C81.2445 11.5111 80.9778 10.9778 80.9778 10.3111C80.9778 9.64447 81.1556 9.11114 81.5556 8.66669C81.9556 8.22225 82.4445 8.04447 83.0667 8.04447C84.8445 8.04447 86.1333 9.33336 86.9333 11.8667L87.6889 11.6445L87.5111 7.82225ZM44.7556 7.42225C44.1333 7.11114 43.4667 6.9778 42.7111 6.9778C41.9556 6.9778 41.2 7.28892 40.3556 7.91114C39.5111 8.53336 38.8889 9.37781 38.4 10.5334L38.4445 6.9778L31.6889 8.31114V8.93336L32.3556 8.97781C33.2 9.06669 33.6889 9.73336 33.7778 10.9334C34.0445 13.6889 34.0445 16.6223 33.7778 19.7334C33.6889 20.9334 33.2 21.5556 32.3556 21.6889L31.6889 21.7778V22.6222H41.1111V21.7778L39.9111 21.6889C39.0667 21.6 38.5778 20.9334 38.4889 19.7334C38.2222 17.1556 38.1778 14.4 38.4 11.5556C38.6667 11.1111 39.2445 10.8445 40.1333 10.7556C41.0222 10.6667 42.0445 10.9334 43.1111 11.5556L44.7556 7.42225Z" fill="#ADB5BD" />
  </g>
  <defs>
    <clipPath id="clip0_7_450">
      <rect width="88.8889" height="24" fill="white" />
    </clipPath>
  </defs>
</svg>