<svg width="150" height="24" viewBox="0 0 150 24" fill="none" xmlns="http://www.w3.org/2000/svg">
  <g clip-path="url(#clip0_7_421)">
    <path d="M38.9189 13.9754C38.7125 14.1523 38.4767 14.2408 38.1818 14.2408H30.3686C30.4865 15.3317 30.8698 16.1867 31.6069 16.8354C32.344 17.484 33.199 17.8083 34.231 17.8083C34.9386 17.8083 35.5283 17.6904 35.9705 17.484C36.4128 17.2776 36.7961 17.0123 37.1499 16.6879C37.3858 16.5405 37.5922 16.4816 37.7985 16.4816C38.0639 16.4816 38.2703 16.57 38.4177 16.7469C38.5946 16.9238 38.6831 17.1302 38.6831 17.3661C38.6831 17.6904 38.5356 17.9558 38.2408 18.2211C37.7985 18.6634 37.2383 19.0172 36.5307 19.312C35.8231 19.6069 35.086 19.7543 34.3489 19.7543C33.1401 19.7543 32.1081 19.4889 31.1941 18.9877C30.2801 18.4865 29.5725 17.7789 29.0713 16.8943C28.57 15.9803 28.3342 14.9779 28.3342 13.828C28.3342 12.5897 28.5995 11.4988 29.1008 10.5553C29.602 9.61178 30.2801 8.90417 31.1057 8.40294C31.9312 7.90171 32.8452 7.63635 33.7887 7.63635C34.7322 7.63635 35.6167 7.87222 36.4423 8.37345C37.2678 8.87468 37.946 9.52333 38.4472 10.3784C38.9484 11.2334 39.2138 12.2064 39.2138 13.2678C39.2433 13.5626 39.1253 13.7985 38.9189 13.9754ZM31.6659 10.3194C31.0467 10.7911 30.6634 11.4988 30.457 12.4717H37.0025V12.2948C36.914 11.4988 36.5897 10.8796 35.941 10.3784C35.3219 9.87714 34.5848 9.61178 33.7887 9.61178C32.9926 9.61178 32.2555 9.84765 31.6659 10.3194Z" fill="#ADB5BD" />
    <path d="M50.7715 8.19657C51.5381 8.57986 51.9509 9.0516 51.9509 9.6118C51.9509 9.87715 51.8624 10.0835 51.715 10.2899C51.5381 10.4963 51.3317 10.5848 51.0958 10.5848C50.8895 10.5848 50.742 10.5553 50.6536 10.4963C50.5356 10.4374 50.3882 10.3489 50.2113 10.2015C50.1229 10.113 49.9754 9.99509 49.7985 9.87715C49.6216 9.7887 49.3563 9.70025 49.032 9.64128C48.7076 9.58231 48.4128 9.55283 48.1474 9.55283C47.3809 9.55283 46.7027 9.72973 46.113 10.0835C45.5234 10.4374 45.0516 10.9386 44.7273 11.5577C44.403 12.1769 44.2261 12.8845 44.2261 13.6511C44.2261 14.4472 44.3735 15.1253 44.6978 15.7445C45.0221 16.3636 45.4644 16.8649 46.0541 17.2187C46.6437 17.5725 47.2924 17.7494 48.0295 17.7494C48.7961 17.7494 49.4152 17.6315 49.887 17.3956C50.0049 17.3366 50.1229 17.2482 50.2998 17.1007C50.4472 16.9828 50.5651 16.8944 50.6831 16.8354C50.801 16.7764 50.9189 16.7469 51.0958 16.7469C51.3907 16.7469 51.6265 16.8354 51.8035 17.0123C51.9804 17.1892 52.0688 17.4251 52.0688 17.7199C52.0688 18.0442 51.8624 18.3391 51.4791 18.6339C51.0958 18.9288 50.5651 19.1941 49.9165 19.371C49.2678 19.5479 48.5602 19.6659 47.7936 19.6659C46.6732 19.6659 45.6708 19.4005 44.8157 18.8698C43.9607 18.3391 43.2826 17.6315 42.8403 16.688C42.3686 15.774 42.1327 14.742 42.1327 13.5921C42.1327 12.4423 42.3686 11.4103 42.8698 10.4963C43.371 9.58231 44.0492 8.84521 44.9042 8.3145C45.7887 7.78379 46.7617 7.51843 47.9116 7.51843C49.032 7.66585 50.0049 7.84276 50.7715 8.19657Z" fill="#ADB5BD" />
    <path d="M65.0123 12.5602V18.4865C65.0123 18.7813 64.9238 19.0467 64.7174 19.2531C64.511 19.4595 64.2752 19.5774 63.9508 19.5774C63.656 19.5774 63.4201 19.4595 63.2137 19.2531C63.0073 19.0467 62.9189 18.7813 62.9189 18.4865V12.5602C62.9189 10.6437 62.0933 9.67076 60.4717 9.67076C59.5872 9.67076 58.8796 9.93612 58.2899 10.4963C57.7002 11.0565 57.4349 11.7346 57.4349 12.5602V18.4865C57.4349 18.7813 57.3464 19.0467 57.14 19.2531C56.9336 19.4595 56.6978 19.5774 56.3734 19.5774C56.0491 19.5774 55.8132 19.4889 55.6069 19.2826C55.4005 19.0762 55.312 18.8403 55.312 18.516V4.18673C55.312 3.89189 55.4005 3.62654 55.6069 3.42015C55.8132 3.21376 56.0491 3.09583 56.344 3.09583C56.6683 3.09583 56.9041 3.21376 57.1105 3.42015C57.3169 3.62654 57.4054 3.89189 57.4054 4.18673V9.7887C57.7887 9.19902 58.2899 8.72728 58.968 8.3145C59.6462 7.90172 60.3538 7.69533 61.0909 7.69533C63.715 7.72482 65.0123 9.34644 65.0123 12.5602Z" fill="#ADB5BD" />
    <path d="M102.162 8.49138C102.988 8.99261 103.607 9.72971 104.079 10.6437C104.55 11.5577 104.786 12.5897 104.786 13.7395C104.786 14.8894 104.55 15.9214 104.079 16.8354C103.607 17.7494 102.958 18.457 102.162 18.9877C101.337 19.5184 100.452 19.7543 99.4791 19.7543C98.7126 19.7543 98.0049 19.5774 97.3268 19.253C96.6487 18.8992 96.118 18.4865 95.7052 18.0147V22.9386C95.7052 23.2334 95.6167 23.4987 95.4103 23.7051C95.204 23.9115 94.9681 24.0295 94.6438 24.0295C94.3489 24.0295 94.113 23.941 93.9067 23.7346C93.7003 23.5282 93.6118 23.2924 93.6118 22.968V8.96312C93.6118 8.6388 93.7003 8.40292 93.9067 8.19654C94.113 7.99015 94.3489 7.87221 94.6732 7.87221C94.9976 7.87221 95.2334 7.99015 95.4398 8.19654C95.6462 8.40292 95.7347 8.66828 95.7347 8.96312V9.61177C96.0885 9.08106 96.6192 8.6388 97.2973 8.28499C97.9755 7.9017 98.7126 7.72479 99.4791 7.72479C100.452 7.72479 101.337 7.99015 102.162 8.49138ZM101.042 17.2776C101.602 16.9238 102.015 16.4521 102.31 15.8329C102.604 15.2137 102.752 14.5356 102.752 13.769C102.752 13.0024 102.604 12.2948 102.31 11.7051C102.015 11.086 101.573 10.6142 101.042 10.2604C100.482 9.90661 99.8919 9.72971 99.2138 9.72971C98.5062 9.72971 97.887 9.90661 97.3563 10.2604C96.8256 10.6142 96.3833 11.086 96.0885 11.7051C95.7936 12.3243 95.6462 13.0319 95.6462 13.7985C95.6462 14.5651 95.7936 15.2727 96.0885 15.8919C96.3833 16.511 96.8256 17.0123 97.3563 17.3366C97.9165 17.6904 98.5356 17.8673 99.2138 17.8673C99.8624 17.8083 100.482 17.6314 101.042 17.2776Z" fill="#ADB5BD" />
    <path d="M110.3 19.2531C110.093 19.4595 109.828 19.5774 109.533 19.5774C109.238 19.5774 109.002 19.4595 108.796 19.2531C108.59 19.0467 108.501 18.7813 108.501 18.4865V4.18673C108.501 3.89189 108.619 3.62654 108.826 3.42015C109.032 3.21376 109.297 3.09583 109.592 3.09583C109.887 3.09583 110.123 3.21376 110.329 3.42015C110.536 3.62654 110.624 3.89189 110.624 4.18673V18.4865C110.624 18.7813 110.506 19.0467 110.3 19.2531Z" fill="#ADB5BD" />
    <path d="M125.071 16.8354C124.541 17.7494 123.833 18.457 122.948 18.9877C122.064 19.5184 121.061 19.7543 120 19.7543C118.909 19.7543 117.936 19.4889 117.052 18.9877C116.167 18.457 115.459 17.7494 114.929 16.8354C114.398 15.9214 114.162 14.8894 114.162 13.7395C114.162 12.5897 114.428 11.5282 114.929 10.6142C115.459 9.67075 116.167 8.96313 117.052 8.43242C117.936 7.9017 118.939 7.66583 120 7.66583C121.091 7.66583 122.064 7.93119 122.948 8.43242C123.833 8.96313 124.541 9.67075 125.071 10.6142C125.602 11.5577 125.838 12.5897 125.838 13.7395C125.838 14.8894 125.572 15.9214 125.071 16.8354ZM123.243 11.5872C122.919 10.968 122.447 10.4668 121.887 10.113C121.327 9.7592 120.678 9.58229 120 9.58229C119.292 9.58229 118.673 9.7592 118.113 10.113C117.553 10.4668 117.081 10.9386 116.757 11.5872C116.432 12.2064 116.256 12.9435 116.256 13.7395C116.256 14.5356 116.432 15.2137 116.757 15.8624C117.081 16.4816 117.553 16.9828 118.113 17.3071C118.673 17.6314 119.322 17.8378 120 17.8378C120.708 17.8378 121.327 17.6609 121.887 17.3071C122.447 16.9533 122.919 16.4816 123.243 15.8624C123.568 15.2432 123.744 14.5356 123.744 13.7395C123.744 12.9435 123.568 12.2359 123.243 11.5872Z" fill="#ADB5BD" />
    <path d="M136.187 7.96068C136.482 8.16707 136.6 8.40294 136.6 8.69778C136.6 9.05159 136.511 9.31694 136.334 9.49385C136.157 9.67075 135.921 9.7592 135.656 9.7592C135.509 9.7592 135.332 9.70023 135.066 9.61178C134.742 9.49385 134.506 9.46436 134.329 9.46436C133.857 9.46436 133.415 9.61178 132.973 9.93611C132.531 10.2604 132.177 10.7027 131.912 11.2334C131.646 11.7936 131.499 12.4128 131.499 13.0909V18.4275C131.499 18.7223 131.41 18.9877 131.204 19.1941C130.998 19.4005 130.762 19.5184 130.437 19.5184C130.113 19.5184 129.877 19.43 129.671 19.2236C129.464 19.0172 129.376 18.7813 129.376 18.457V8.99262C129.376 8.69778 129.464 8.43242 129.671 8.22603C129.877 8.01964 130.113 7.90171 130.408 7.90171C130.732 7.90171 130.968 8.01964 131.174 8.22603C131.381 8.43242 131.469 8.69778 131.469 8.99262V10.113C131.794 9.37591 132.295 8.78623 132.943 8.34397C133.592 7.90171 134.329 7.66584 135.155 7.63635C135.568 7.66584 135.892 7.75429 136.187 7.96068Z" fill="#ADB5BD" />
    <path d="M149.042 13.9754C148.835 14.1523 148.6 14.2408 148.305 14.2408H140.491C140.609 15.3317 140.993 16.1867 141.73 16.8354C142.467 17.484 143.322 17.8083 144.354 17.8083C145.061 17.8083 145.651 17.6904 146.093 17.484C146.536 17.2776 146.919 17.0123 147.273 16.6879C147.509 16.5405 147.715 16.4816 147.921 16.4816C148.187 16.4816 148.393 16.57 148.541 16.7469C148.717 16.9238 148.806 17.1302 148.806 17.3661C148.806 17.6904 148.659 17.9558 148.364 18.2211C147.921 18.6634 147.361 19.0172 146.654 19.312C145.946 19.6069 145.209 19.7543 144.472 19.7543C143.263 19.7543 142.231 19.4889 141.317 18.9877C140.403 18.4865 139.695 17.7789 139.194 16.8943C138.693 15.9803 138.457 14.9779 138.457 13.828C138.457 12.5897 138.722 11.4988 139.224 10.5553C139.725 9.61178 140.403 8.90417 141.229 8.40294C142.054 7.90171 142.968 7.63635 143.912 7.63635C144.855 7.63635 145.74 7.87222 146.565 8.37345C147.391 8.87468 148.069 9.52333 148.57 10.3784C149.071 11.2334 149.337 12.2064 149.337 13.2678C149.366 13.5626 149.248 13.7985 149.042 13.9754ZM141.789 10.3194C141.17 10.7911 140.786 11.4988 140.58 12.4717H147.125V12.2948C147.037 11.4988 146.713 10.8796 146.064 10.3784C145.445 9.87714 144.708 9.61178 143.912 9.61178C143.116 9.61178 142.408 9.84765 141.789 10.3194Z" fill="#ADB5BD" />
    <path d="M80.4324 5.83781L74.7715 0.20636L70.3194 4.57L75.9803 10.2014L70.3194 15.8624L74.7715 20.226L80.4324 14.5946L84.7961 10.2014L80.4324 5.83781Z" fill="#ADB5BD" />
    <path d="M86.1531 0.00365651L81.7333 4.42346L86.1531 8.84327L90.573 4.42347L86.1531 0.00365651Z" fill="#ADB5BD" />
    <path d="M86.0573 11.6711L81.6375 16.0915L86.0579 20.5113L90.4777 16.0909L86.0573 11.6711Z" fill="#ADB5BD" />
    <path d="M8.52088 20.5209H15.7445V11.2039V3.98035H8.52088H0V11.2039H8.52088V20.5209Z" fill="#ADB5BD" />
    <path d="M24.855 3.98035H17.543V11.2924H24.855V3.98035Z" fill="#ADB5BD" />
  </g>
  <defs>
    <clipPath id="clip0_7_421">
      <rect width="149.396" height="24" fill="white" />
    </clipPath>
  </defs>
</svg>