<svg width="169" height="18" viewBox="0 0 169 18" fill="none" xmlns="http://www.w3.org/2000/svg">
  <g clip-path="url(#clip0_7_371)">
    <path d="M40.4459 4.29996V0.249962H54.3325V4.29996H40.4459ZM45.2964 17.7497V0.249962H49.482V17.7497H45.2964ZM55.1055 17.1499C54.1287 16.5837 53.3529 15.8043 52.7782 14.812C52.2034 13.8205 51.9161 12.7331 51.9163 11.5499C51.9163 10.3663 52.1995 9.26626 52.766 8.2997C53.3197 7.34554 54.1138 6.55624 55.0677 6.012C56.0366 5.45366 57.1037 5.17438 58.269 5.17415C59.3519 5.1746 60.3532 5.44121 61.2729 5.97396C62.1805 6.49612 62.9394 7.24527 63.4767 8.14925C64.0268 9.06623 64.3018 10.0913 64.3018 11.2245C64.3018 11.5913 64.2771 12.0746 64.2277 12.6744H53.9359V10.0994H60.1657C60.1327 9.76585 60.0136 9.47842 59.8085 9.23706C59.6011 8.99428 59.3451 8.79846 59.0574 8.66242C58.7616 8.52068 58.4334 8.4497 58.0727 8.44947C57.5475 8.44947 57.0961 8.56608 56.7184 8.79928C56.3406 9.03317 56.0411 9.40392 55.8198 9.91155C55.5981 10.4198 55.4872 11.0655 55.4872 11.8484C55.4872 12.4154 55.6063 12.9113 55.8444 13.3363C56.0732 13.753 56.4147 14.0955 56.8291 14.3239C57.2475 14.5576 57.7195 14.6742 58.2451 14.6737C58.803 14.674 59.2503 14.5698 59.587 14.3613C59.9234 14.153 60.1408 13.8737 60.2391 13.5234H64.1298C63.9325 14.8901 63.3048 15.9774 62.2465 16.7855C61.1877 17.5943 59.8868 17.9984 58.3441 17.998C57.1622 17.998 56.0829 17.7147 55.1061 17.1482L55.1055 17.1499ZM68.1602 17.1628C67.2128 16.6173 66.4299 15.8225 65.8952 14.8632C65.3451 13.8885 65.0701 12.8094 65.0701 11.626C65.0701 10.4424 65.3444 9.30906 65.8952 8.32551C66.4453 7.34219 67.2003 6.57125 68.1602 6.01268C69.1208 5.45434 70.1918 5.17517 71.3732 5.17517C72.4079 5.17517 73.3681 5.40023 74.254 5.85034C75.1398 6.30045 75.8622 6.91698 76.421 7.69992C76.9742 8.47141 77.3139 9.37751 77.4054 10.3252H73.3921C73.2938 9.94211 73.0557 9.63362 72.6777 9.39974C72.3 9.16653 71.865 9.04992 71.3725 9.04992C70.9291 9.05015 70.5187 9.15838 70.1414 9.3746C69.7684 9.58664 69.4649 9.90377 69.2678 10.2872C69.0624 10.6789 68.9599 11.1246 68.9601 11.6243C68.9599 12.0916 69.0624 12.5206 69.2678 12.9114C69.4643 13.2952 69.768 13.6123 70.1414 13.8237C70.5162 14.0397 70.9409 14.1517 71.3725 14.1483C71.8813 14.1486 72.3246 14.0193 72.7023 13.7605C73.0794 13.5024 73.3175 13.1732 73.4167 12.7729H77.4303C77.3484 13.7729 77.0324 14.6689 76.4823 15.4606C75.9322 16.2524 75.2059 16.8732 74.3035 17.3231C73.3999 17.7732 72.4231 17.9983 71.3732 17.9983C70.1916 17.9983 69.1206 17.719 68.1602 17.1605V17.1628ZM82.2323 0.249962V17.7497H78.2928V0.249962H82.2323ZM85.9873 10.2498C85.8314 9.89977 85.6015 9.63713 85.2979 9.46189C84.9938 9.28732 84.6368 9.19992 84.227 9.1997C83.6123 9.19936 83.4513 9.30838 83.082 9.52438C82.7201 9.73415 82.4189 10.0359 82.2084 10.3996V6.79958C82.5201 6.29921 82.951 5.90343 83.5008 5.61226C84.0431 5.32301 84.6477 5.17289 85.2612 5.17517C86.2785 5.17517 87.1569 5.40011 87.8962 5.85C88.635 6.30034 89.2013 6.95038 89.5949 7.80011C89.9888 8.6503 90.1857 9.65876 90.1857 10.8255V17.7504H86.2217V11.5003C86.2217 11.0169 86.1439 10.6003 85.9883 10.2505L85.9873 10.2498ZM95.3322 16.8375C93.9943 16.0629 92.9396 14.9879 92.168 13.6124C91.3959 12.2372 91.01 10.6997 91.0102 9C91.0102 7.29985 91.396 5.78717 92.168 4.41238C92.9389 3.03691 93.9936 1.95894 95.3322 1.17543C96.6698 0.392038 98.1676 0.000226415 99.8255 0C101.204 0 102.501 0.283358 103.716 0.850075C104.93 1.41657 105.936 2.20392 106.732 3.21215C107.528 4.22083 107.992 5.33332 108.124 6.54962H103.495C103.363 6.08321 103.121 5.6623 102.768 5.28691C102.415 4.91196 101.98 4.62453 101.463 4.4246C100.94 4.22366 100.385 4.12188 99.8255 4.12438C98.972 4.12438 98.2005 4.33698 97.511 4.76219C96.8215 5.1874 96.28 5.77075 95.8863 6.51226C95.4924 7.25423 95.2955 8.08347 95.2955 9C95.2955 9.91653 95.4924 10.7497 95.8863 11.4996C96.2802 12.2495 96.8217 12.8329 97.511 13.2497C98.2002 13.6665 98.9717 13.8748 99.8255 13.8746C100.416 13.8746 100.966 13.7621 101.475 13.537C101.971 13.3216 102.416 13.002 102.78 12.5997C103.136 12.2101 103.39 11.7374 103.519 11.2242H108.173C107.976 12.5412 107.488 13.7122 106.708 14.7369C105.928 15.7619 104.939 16.5619 103.741 17.137C102.543 17.7117 101.238 17.999 99.8265 17.999C98.1684 17.999 96.6705 17.6116 95.3328 16.8368L95.3322 16.8375ZM116.913 9.27509H113.122V17.7507H109.182V5.42547H116.913V9.27509ZM128.862 15.1125C128.361 16.0209 127.672 16.7292 126.794 17.2375C125.916 17.7458 124.919 18 123.803 18C122.686 18 121.66 17.746 120.774 17.2375C119.887 16.7292 119.194 16.0209 118.693 15.1125C118.192 14.2046 117.942 13.1755 117.942 12.0254V5.42547H121.881V12.0254C121.881 12.6752 122.053 13.1918 122.398 13.5754C122.743 13.9589 123.211 14.1505 123.802 14.15C124.392 14.15 124.836 13.9592 125.18 13.5754C125.525 13.1923 125.697 12.6756 125.698 12.0254V5.42547H129.613V12.0254C129.613 13.1755 129.363 14.2046 128.862 15.1125ZM134.752 17.7497H130.813V5.42513H134.752V17.7497ZM138.532 10.2498C138.376 9.89977 138.146 9.63713 137.842 9.46189C137.539 9.28732 137.182 9.20004 136.771 9.20004C136.364 9.19902 135.964 9.31123 135.615 9.52438C135.254 9.74052 134.95 10.0406 134.728 10.3996V6.79958C135.056 6.29921 135.495 5.90343 136.045 5.61226C136.588 5.32301 137.192 5.17289 137.806 5.17517C138.823 5.17517 139.702 5.40023 140.441 5.85034C141.179 6.30045 141.745 6.95049 142.14 7.80045C142.534 8.65042 142.731 9.65876 142.731 10.8255V17.7504H138.767V11.5006C138.767 11.0175 138.689 10.6009 138.533 10.2508L138.532 10.2498ZM146.707 17.1628C145.76 16.6173 144.977 15.8225 144.442 14.8632C143.892 13.8885 143.617 12.8094 143.617 11.626C143.617 10.4424 143.891 9.30906 144.442 8.32551C144.992 7.34219 145.747 6.57125 146.707 6.01268C147.668 5.45434 148.739 5.17517 149.92 5.17517C150.954 5.17517 151.915 5.40023 152.801 5.85034C153.687 6.30045 154.409 6.91698 154.968 7.69992C155.526 8.48332 155.854 9.35842 155.952 10.3252H151.939C151.841 9.94211 151.603 9.63362 151.224 9.39974C150.847 9.16653 150.412 9.04992 149.919 9.04992C149.488 9.04729 149.063 9.15927 148.688 9.3746C148.315 9.58675 148.012 9.90384 147.814 10.2872C147.609 10.6789 147.506 11.1246 147.507 11.6243C147.506 12.0916 147.609 12.5206 147.814 12.9114C148.011 13.2952 148.315 13.6124 148.688 13.8237C149.066 14.0403 149.476 14.1486 149.919 14.1483C150.428 14.1486 150.871 14.0193 151.249 13.7605C151.626 13.5024 151.864 13.1732 151.963 12.7729H155.977C155.895 13.7729 155.579 14.6689 155.029 15.4606C154.479 16.2524 153.753 16.8732 152.85 17.3231C151.947 17.7732 150.97 17.9983 149.92 17.9983C148.738 17.9983 147.667 17.719 146.707 17.1605V17.1628ZM160.791 0.249962V17.7497H156.852V0.249962H160.791ZM164.547 10.2498C164.391 9.89977 164.161 9.63713 163.857 9.46189C163.553 9.28732 163.196 9.19992 162.786 9.1997C162.376 9.1997 162.01 9.30838 161.641 9.52438C161.279 9.7341 160.978 10.0359 160.767 10.3996V6.79958C161.079 6.29921 161.51 5.90343 162.06 5.61226C162.602 5.32301 163.207 5.17289 163.82 5.17517C164.838 5.17517 165.716 5.40011 166.455 5.85C167.194 6.30034 167.761 6.95038 168.154 7.80011C168.548 8.6503 168.745 9.65876 168.745 10.8255V17.7504H164.781V11.5003C164.781 11.0169 164.703 10.6003 164.547 10.2505L164.547 10.2498ZM17.476 0.249962V6.07823H11.7361V17.7504H5.99513V6.07823H0.255188V0.249962H17.476ZM34.6968 11.9221V17.7507H17.4757V6.08162H23.216V11.9221H34.6968ZM34.6972 0.249962H23.2166V6.07823H34.6972V0.249962Z" fill="#ADB5BD" />
  </g>
  <defs>
    <clipPath id="clip0_7_371">
      <rect width="169" height="18" fill="white" />
    </clipPath>
  </defs>
</svg>