<svg width="109" height="24" viewBox="0 0 109 24" fill="none" xmlns="http://www.w3.org/2000/svg">
  <g clip-path="url(#clip0_7_363)">
    <path d="M81.5546 6.13614L81.448 9.2462C77.7117 8.99728 76.6443 9.93054 76.6443 12.9782V13.3715H73.442V6.32265H76.6443V8.33385C77.6052 6.69602 78.9075 5.94963 81.5546 6.13614ZM5.33747 18.7838H8.53974V6.75774H5.33747V18.7838ZM21.2 6.15705C18.9582 6.15705 17.592 7.13145 16.8661 8.2094V1.57477H0V4.4774H13.8772V13.3715H16.9299C16.9299 10.8213 18.446 9.0182 20.3033 9.0182C21.9048 9.0182 22.6304 9.78517 22.6304 12.5428V18.7838H25.8326V11.4233C25.8326 7.89877 23.9754 6.15705 21.2 6.15705ZM33.796 16.3989C31.8534 16.3989 30.5937 15.2585 30.3803 13.3718H27.3699C27.6687 16.6893 29.9104 19.0324 33.7748 19.0324C36.7637 19.0324 38.4502 17.7261 39.3257 15.7564L36.6141 14.5951C36.2085 15.7769 35.4613 16.3989 33.796 16.3989ZM33.6679 6.21877C32.5249 6.19423 31.3939 6.45099 30.3803 6.96517L31.9172 9.07991C32.4936 8.78985 33.1131 8.64448 33.7748 8.66505C35.5682 8.66505 36.4861 9.80574 36.6141 11.2982H33.5184V13.3718H39.6245C39.6672 13.0608 39.6887 12.7704 39.6887 12.4598C39.7099 7.93957 36.6356 6.21877 33.6679 6.21877ZM65.3718 16.3989C63.4292 16.3989 62.1695 15.2585 61.9561 13.3718H58.9457C59.2445 16.6893 61.4862 19.0324 65.3506 19.0324C68.3395 19.0324 70.026 17.7261 70.9015 15.7564L68.1899 14.5951C67.7631 15.7769 67.016 16.3989 65.3718 16.3989ZM65.2653 6.21877C64.122 6.19417 62.991 6.45093 61.9773 6.96517L63.5145 9.07991C64.0909 8.78985 64.71 8.64448 65.3718 8.66505C67.1652 8.66505 68.0834 9.80574 68.2114 11.2982H65.1157V13.3718H71.2218C71.2645 13.0608 71.2857 12.7704 71.2857 12.4598C71.3072 7.93957 68.2326 6.21877 65.2653 6.21877ZM102.797 16.3989C100.855 16.3989 99.595 15.2585 99.3815 13.3718H96.3712C96.67 16.6893 98.9117 19.0324 102.776 19.0324C105.765 19.0324 107.451 17.7261 108.327 15.7564L105.615 14.5951C105.189 15.7769 104.441 16.3989 102.797 16.3989ZM102.627 6.21877C101.483 6.19422 100.352 6.45097 99.3389 6.96517L100.876 9.07991C101.453 8.78985 102.072 8.64448 102.733 8.66505C104.527 8.66505 105.445 9.80574 105.573 11.2982H102.477V13.3718H108.583C108.626 13.0608 108.647 12.7704 108.647 12.4598C108.668 7.93957 105.594 6.21877 102.627 6.21877ZM41.3325 0.102539L47.0922 13.3715H50.5936L46.2001 2.81865H51.8791V0.123453L41.3325 0.102882V0.102539ZM58.412 0.12311L51.8149 16.3577L50.8328 18.7838H54.1846L62.1053 0.123453H58.412V0.12311ZM87.8529 18.4934C89.2191 18.4934 90.3508 18.12 91.1406 17.4775L89.8597 15.5078C89.4541 15.6737 89.0057 15.7358 88.5574 15.7358C86.8067 15.7358 85.8031 14.7199 85.4616 13.3721H82.3232C82.7504 16.2542 84.8852 18.4934 87.8529 18.4934ZM91.8023 8.06437C91.0767 6.94494 89.6033 6.13614 87.5538 6.13614C85.547 6.11557 83.6898 7.17294 82.7077 8.89374L85.3763 10.5525C85.8673 9.55717 86.8282 8.89374 88.3013 8.89374C90.3935 8.89374 91.8023 10.4695 91.8023 12.3353C91.8023 12.6881 91.7597 13.0406 91.6531 13.3721H95.005V6.34357H91.8023V8.06437ZM88.707 21.3131C86.6359 21.3131 85.8673 20.3387 85.7177 19.1983H82.665C82.7289 21.3755 84.2235 23.7597 88.7708 23.7597C91.845 23.7597 93.8518 22.2669 94.6847 20.0277L91.8023 19.0533C91.3967 20.5046 90.2866 21.3131 88.707 21.3131Z" fill="#ADB5BD" />
  </g>
  <defs>
    <clipPath id="clip0_7_363">
      <rect width="109" height="24" fill="white" />
    </clipPath>
  </defs>
</svg>