<svg width="105" height="24" viewBox="0 0 105 24" fill="none" xmlns="http://www.w3.org/2000/svg">
  <g clip-path="url(#clip0_7_444)">
    <path d="M49.2233 0L50.105 3.13421C50.2091 3.53591 50.3144 3.93734 50.3844 4.26905C50.4281 4.46106 50.4625 4.64447 50.4978 4.81904H50.5153C50.5501 4.64447 50.585 4.46106 50.6287 4.26905C50.6984 3.93734 50.7848 3.53565 50.8993 3.13421L51.7802 0H53.5873V6.24215H52.4088V2.66279C52.4088 2.40965 52.4088 2.09537 52.4348 1.8248C52.4436 1.67651 52.4522 1.51911 52.4608 1.37081H52.4434C52.4173 1.51911 52.3822 1.65881 52.3559 1.79852C52.2948 2.04308 52.2337 2.32223 52.1738 2.5582L51.0999 6.24241H49.8865L48.8388 2.5582C48.769 2.32249 48.7165 2.04308 48.6567 1.79852C48.6306 1.65881 48.5955 1.51911 48.5692 1.37081H48.5518C48.5607 1.51911 48.5692 1.67625 48.5778 1.8248C48.5867 2.09537 48.6038 2.40965 48.6038 2.66279V6.24215H47.4412V0H49.2233ZM57.0803 5.74471H57.0629C56.9522 5.92505 56.7955 6.07267 56.6089 6.17243C56.3387 6.29817 56.0424 6.358 55.7446 6.34699C54.8192 6.34699 54.1818 5.87558 54.1818 4.97645C54.1693 4.77243 54.2112 4.56875 54.3032 4.38623C54.3952 4.20371 54.5341 4.04889 54.7055 3.9376C55.0961 3.71232 55.5312 3.57522 55.9803 3.53591C56.7312 3.43184 57.0629 3.36992 57.0629 3.02963C57.0629 2.69792 56.8183 2.49707 56.312 2.49707C55.7532 2.49707 55.4826 2.68907 55.4478 3.12563H54.3915C54.394 2.92883 54.439 2.7349 54.5233 2.55709C54.6077 2.37928 54.7295 2.22178 54.8803 2.09537C55.291 1.7778 55.8027 1.61967 56.3209 1.65023C57.6654 1.65023 58.2066 2.24393 58.2066 3.3002V5.57873C58.2066 5.91928 58.2586 6.12013 58.3627 6.1987V6.24241H57.2179C57.1381 6.08781 57.0913 5.91834 57.0803 5.74471ZM56.8183 5.24702C56.9022 5.17417 56.9696 5.08439 57.0163 4.98358C57.0629 4.88278 57.0877 4.77323 57.0889 4.66216V3.9899C56.8272 4.11848 56.5476 4.2068 56.2595 4.25188C55.6309 4.39159 55.3341 4.5313 55.3341 4.95043C55.3341 5.36955 55.6135 5.51785 56.0326 5.51785C56.3191 5.5297 56.6 5.43297 56.8183 5.24702ZM58.6254 4.79303H59.7254C59.8034 5.31674 60.162 5.53502 60.7031 5.53502C61.2268 5.53502 61.5237 5.33417 61.5237 5.01989C61.5237 4.81046 61.3754 4.68818 61.1657 4.60961C60.8964 4.53128 60.6223 4.47045 60.3451 4.4275C59.9606 4.37871 59.5897 4.25411 59.2537 4.06092C59.0897 3.95647 58.9568 3.8097 58.8693 3.63606C58.7817 3.46243 58.7425 3.26838 58.756 3.07438C58.7461 2.86364 58.7898 2.65382 58.8829 2.46452C58.976 2.27522 59.1156 2.1126 59.2886 1.99183C59.6728 1.7448 60.1242 1.62283 60.5806 1.64268C61.7773 1.64268 62.4054 2.21011 62.5014 3.12563H61.4274C61.3663 2.63678 61.0783 2.47079 60.5631 2.47079C60.0917 2.47079 59.7949 2.63678 59.7949 2.96849C59.7949 3.16934 59.9432 3.26534 60.1791 3.33506C60.406 3.41311 60.7117 3.44849 61.026 3.51718C61.4033 3.5729 61.7673 3.69713 62.0999 3.88375C62.2688 3.99861 62.4045 4.15589 62.4934 4.33979C62.5822 4.52369 62.6212 4.72774 62.6062 4.93144C62.6117 5.13686 62.5668 5.3405 62.4755 5.5246C62.3842 5.70871 62.2493 5.8677 62.0825 5.98771C61.6799 6.25519 61.2035 6.38959 60.7205 6.37197C59.4106 6.37405 58.6954 5.7533 58.6254 4.79303ZM62.8682 4.79303H63.9682C64.0462 5.31674 64.4047 5.53502 64.9459 5.53502C65.4696 5.53502 65.7664 5.33417 65.7664 5.01989C65.7664 4.81046 65.6179 4.68818 65.4085 4.60961C65.1391 4.53129 64.865 4.47045 64.5879 4.4275C64.2034 4.37871 63.8325 4.25411 63.4965 4.06092C63.3325 3.95647 63.1996 3.8097 63.112 3.63606C63.0244 3.46243 62.9853 3.26838 62.9988 3.07438C62.9889 2.86364 63.0325 2.65382 63.1257 2.46452C63.2188 2.27522 63.3584 2.1126 63.5314 1.99183C63.9156 1.7448 64.367 1.62283 64.8233 1.64268C66.0201 1.64268 66.6479 2.21011 66.7441 3.12563H65.6702C65.609 2.63678 65.321 2.47079 64.8059 2.47079C64.3345 2.47079 64.0376 2.63678 64.0376 2.96849C64.0376 3.16934 64.1859 3.26534 64.4219 3.33506C64.649 3.41311 64.9545 3.44849 65.2687 3.51718C65.646 3.57336 66.0098 3.69804 66.3422 3.88505C66.5111 3.99991 66.6468 4.15719 66.7356 4.34109C66.8245 4.52499 66.8634 4.72904 66.8485 4.93274C66.8539 5.13816 66.8091 5.3418 66.7178 5.52591C66.6265 5.71001 66.4916 5.869 66.3248 5.98901C65.9224 6.25666 65.4462 6.39133 64.9633 6.37405C63.6536 6.37405 62.9379 5.7533 62.8682 4.79303ZM70.0706 5.74471H70.0532C69.9425 5.92505 69.7858 6.07267 69.5992 6.17243C69.329 6.29817 69.0328 6.358 68.7349 6.34699C67.8095 6.34699 67.1721 5.87558 67.1721 4.97645C67.1596 4.77243 67.2015 4.56875 67.2935 4.38623C67.3856 4.20371 67.5244 4.04889 67.6958 3.9376C68.0864 3.71232 68.5215 3.57522 68.9706 3.53591C69.7215 3.43184 70.0532 3.36992 70.0532 3.02963C70.0532 2.69792 69.8086 2.49707 69.3023 2.49707C68.7435 2.49707 68.4729 2.68907 68.4381 3.12563H67.3818C67.3843 2.92883 67.4293 2.7349 67.5137 2.55709C67.598 2.37928 67.7198 2.22178 67.8707 2.09537C68.2813 1.7778 68.793 1.61967 69.3112 1.65023C70.6557 1.65023 71.1969 2.24393 71.1969 3.3002V5.57873C71.1969 5.91928 71.2489 6.12013 71.353 6.1987V6.24241H70.2082C70.1284 6.08783 70.0817 5.91836 70.0706 5.74471ZM69.8086 5.24702C69.8925 5.17417 69.9599 5.08439 70.0066 4.98358C70.0532 4.88278 70.078 4.77323 70.0792 4.66216V3.9899C69.8175 4.11847 69.5379 4.2068 69.2498 4.25188C68.6212 4.39159 68.3244 4.5313 68.3244 4.95043C68.3244 5.36955 68.6038 5.51785 69.0229 5.51785C69.3095 5.52976 69.5903 5.43303 69.8086 5.24702ZM72.2969 5.68357C71.8806 5.22599 71.6579 4.62488 71.6756 4.00655C71.6604 3.38802 71.8786 2.78645 72.2867 2.32146C72.4935 2.09917 72.7453 1.92348 73.0253 1.80608C73.3053 1.68868 73.6071 1.63227 73.9107 1.6406C74.4148 1.6256 74.9085 1.78607 75.3075 2.09459C75.6566 2.40025 75.8831 2.82212 75.9449 3.28199H74.7838C74.7552 3.08647 74.6559 2.90823 74.5047 2.78109C74.3534 2.65396 74.1607 2.58678 73.9632 2.59229C73.2386 2.59229 72.8807 3.12485 72.8807 4.00655C72.8807 4.86223 73.2124 5.42081 73.9458 5.42081C74.0549 5.43096 74.1649 5.41929 74.2694 5.38647C74.3739 5.35364 74.4709 5.30033 74.5546 5.22963C74.6383 5.15894 74.7071 5.07228 74.7569 4.97471C74.8068 4.87715 74.8367 4.77064 74.8449 4.66139H75.9896C75.9601 5.12412 75.7501 5.55676 75.4048 5.86621C75.0077 6.2076 74.4973 6.38818 73.9739 6.37249C73.6615 6.38237 73.3506 6.32609 73.0616 6.20736C72.7725 6.08864 72.5121 5.91013 72.2969 5.68357ZM77.6661 2.34851C77.7962 2.12169 77.9866 1.93547 78.2163 1.8106C78.446 1.68574 78.7059 1.62715 78.967 1.64139C79.1764 1.63501 79.3847 1.67382 79.5777 1.75517C79.7708 1.83652 79.944 1.95849 80.0857 2.1128C80.3727 2.44748 80.5252 2.87688 80.5134 3.31763V6.24241H79.3244V3.4922C79.3369 3.38516 79.3257 3.27669 79.2917 3.17444C79.2577 3.07219 79.2016 2.97864 79.1275 2.9004C79.0535 2.82216 78.9631 2.76112 78.8628 2.7216C78.7626 2.68207 78.6549 2.66502 78.5473 2.67164C78.0236 2.67164 77.6394 3.08192 77.6394 3.70189V6.24241H76.4522V0H77.6396V2.34851H77.6661ZM84.022 5.71843H83.996C83.8575 5.92925 83.6661 6.09994 83.4408 6.21333C83.2155 6.32672 82.9644 6.37883 82.7126 6.36443C81.7086 6.36443 81.1586 5.74445 81.1586 4.74932V1.76366H82.3372V4.54743C82.3372 5.07115 82.564 5.35941 83.0791 5.35941C83.638 5.35941 83.9783 4.94028 83.9783 4.34658V1.76236H85.1657V6.24111H84.0209L84.022 5.71843ZM85.6022 4.79303H86.7022C86.7803 5.31674 87.1388 5.53502 87.6799 5.53502C88.2036 5.53502 88.5005 5.33417 88.5005 5.01989C88.5005 4.81046 88.3519 4.68818 88.1425 4.60961C87.8732 4.53128 87.5991 4.47045 87.3219 4.4275C86.9375 4.37871 86.5665 4.25411 86.2305 4.06092C86.0665 3.95647 85.9337 3.8097 85.8461 3.63606C85.7585 3.46243 85.7194 3.26838 85.7328 3.07438C85.7229 2.86364 85.7666 2.65382 85.8597 2.46452C85.9528 2.27522 86.0924 2.1126 86.2654 1.99183C86.6497 1.7448 87.101 1.62283 87.5574 1.64268C88.7541 1.64268 89.3819 2.21011 89.4782 3.12563H88.4042C88.3431 2.63678 88.0551 2.47079 87.5399 2.47079C87.0685 2.47079 86.7717 2.63678 86.7717 2.96849C86.7717 3.16934 86.92 3.26534 87.1559 3.33506C87.3828 3.41311 87.6885 3.44849 88.0028 3.51718C88.3801 3.5729 88.7441 3.69714 89.0767 3.88375C89.2456 3.99863 89.3813 4.15591 89.4702 4.33981C89.559 4.5237 89.5979 4.72774 89.583 4.93144C89.5885 5.13686 89.5436 5.3405 89.4523 5.5246C89.361 5.70871 89.2261 5.8677 89.0593 5.98771C88.6567 6.25519 88.1804 6.38959 87.6973 6.37197C86.3874 6.37405 85.673 5.7533 85.6022 4.79303ZM90.491 5.68357C90.0805 5.22051 89.8647 4.61684 89.8885 3.99848C89.8747 3.38127 90.0964 2.78197 90.5084 2.32224C90.7104 2.10325 90.9564 1.9294 91.2302 1.81207C91.5041 1.69474 91.7996 1.63657 92.0975 1.64139C92.4111 1.62679 92.7237 1.68731 93.0092 1.81791C93.2947 1.94851 93.5449 2.14541 93.7389 2.39222C94.1403 2.9595 94.3401 3.64492 94.3063 4.33904H91.0579C91.1539 5.03758 91.5207 5.45775 92.2026 5.45775C92.3875 5.47614 92.5731 5.43193 92.7299 5.3322C92.8866 5.23247 93.0053 5.083 93.0669 4.90776H94.2376C94.1561 5.31672 93.9298 5.68255 93.6002 5.93802C93.1999 6.23577 92.7107 6.3896 92.212 6.37457C91.8925 6.38764 91.5739 6.33281 91.2771 6.2137C90.9804 6.09459 90.7128 5.9139 90.491 5.68357ZM91.0759 3.51848H93.0664C93.0699 3.39213 93.0479 3.26637 93.0014 3.14881C92.955 3.03125 92.8851 2.92434 92.7962 2.83456C92.7072 2.74478 92.6009 2.674 92.4838 2.6265C92.3666 2.57899 92.2411 2.55576 92.1147 2.5582C91.4859 2.55794 91.1804 2.92478 91.0759 3.51848ZM95.0743 1.76366V0.366834H96.2352V1.76366H97.0035V2.59307H96.2352V4.92415C96.2352 5.26471 96.4098 5.36929 96.6803 5.36929H96.9072C96.9481 5.3707 96.9891 5.36774 97.0295 5.36045V6.23357C96.9658 6.24097 96.9016 6.24384 96.8375 6.24215C96.7074 6.25099 96.5232 6.25099 96.2875 6.25099C95.9981 6.2639 95.7117 6.18771 95.4669 6.03272C95.3345 5.93487 95.229 5.80507 95.1603 5.65545C95.0917 5.50582 95.062 5.34123 95.0741 5.17703V2.59281H94.4541V1.7634L95.0743 1.76366ZM97.8321 1.76366V0.366834H98.9929V1.76366H99.7612V2.59307H98.9929V4.92415C98.9929 5.26471 99.1675 5.36929 99.4381 5.36929H99.6652C99.7062 5.3707 99.7472 5.36774 99.7875 5.36045V6.23357C99.7238 6.24097 99.6596 6.24383 99.5955 6.24215C99.4654 6.25099 99.2812 6.25099 99.0455 6.25099C98.7561 6.26388 98.4697 6.1877 98.2249 6.03272C98.0925 5.93487 97.987 5.80507 97.9184 5.65545C97.8497 5.50582 97.82 5.34123 97.8321 5.17703V2.59281H97.2121V1.7634L97.8321 1.76366ZM100.084 4.79303H101.184C101.262 5.31674 101.621 5.53502 102.162 5.53502C102.686 5.53502 102.983 5.33417 102.983 5.01989C102.983 4.81046 102.834 4.68818 102.625 4.60961C102.355 4.53128 102.081 4.47045 101.804 4.4275C101.42 4.37871 101.049 4.25411 100.713 4.06092C100.549 3.95647 100.416 3.8097 100.328 3.63606C100.241 3.46243 100.201 3.26838 100.215 3.07438C100.205 2.86364 100.249 2.65382 100.342 2.46452C100.435 2.27522 100.575 2.1126 100.748 1.99183C101.132 1.7448 101.583 1.62283 102.039 1.64268C103.236 1.64268 103.864 2.21011 103.96 3.12563H102.888C102.826 2.63678 102.538 2.47079 102.023 2.47079C101.552 2.47079 101.255 2.63678 101.255 2.96849C101.255 3.16934 101.403 3.26534 101.639 3.33506C101.866 3.41311 102.172 3.44849 102.486 3.51718C102.863 3.5729 103.227 3.69714 103.56 3.88375C103.729 3.99872 103.865 4.15621 103.954 4.34036C104.043 4.52451 104.081 4.72883 104.066 4.93274C104.072 5.13816 104.027 5.3418 103.935 5.52591C103.844 5.71001 103.709 5.869 103.542 5.98901C103.14 6.25649 102.664 6.39089 102.18 6.37327C100.871 6.37405 100.155 5.7533 100.086 4.79303H100.084ZM48.7071 8.11508V14.3572H47.4412V8.11508H48.7071ZM50.7151 10.4899C50.8454 10.2556 51.0388 10.0627 51.2734 9.93301C51.508 9.80334 51.7743 9.74217 52.0419 9.75646C52.2513 9.75008 52.4596 9.78887 52.6527 9.87022C52.8457 9.95157 53.019 10.0736 53.1606 10.2279C53.4477 10.5625 53.6002 10.992 53.5884 11.4327V14.3575H52.401V11.6073C52.4134 11.5002 52.4022 11.3918 52.3682 11.2895C52.3342 11.1873 52.2782 11.0937 52.2041 11.0155C52.13 10.9372 52.0396 10.8762 51.9394 10.8367C51.8391 10.7972 51.7314 10.7801 51.6238 10.7867C51.1001 10.7867 50.7159 11.197 50.7159 11.817V14.3575H49.5277V9.87848H50.6888V10.4896L50.7151 10.4899ZM53.989 12.9094H55.089C55.167 13.4331 55.5255 13.6514 56.0667 13.6514C56.5904 13.6514 56.8872 13.4506 56.8872 13.1363C56.8872 12.9268 56.739 12.8046 56.5293 12.726C56.26 12.6477 55.9859 12.5868 55.7087 12.5439C55.3242 12.4951 54.9533 12.3705 54.6173 12.1773C54.4527 12.0725 54.3196 11.9251 54.232 11.7508C54.1444 11.5765 54.1057 11.3817 54.1199 11.1871C54.11 10.9764 54.1536 10.7666 54.2467 10.5773C54.3399 10.388 54.4794 10.2253 54.6524 10.1046C55.0367 9.85753 55.488 9.73556 55.9444 9.75542C57.1412 9.75542 57.7692 10.3228 57.8652 11.2384H56.7915C56.7304 10.7495 56.4424 10.5835 55.9272 10.5835C55.4558 10.5835 55.159 10.7495 55.159 11.0812C55.159 11.2821 55.3073 11.3781 55.5432 11.4478C55.7704 11.5258 56.0758 11.5612 56.3901 11.6299C56.7673 11.6857 57.1312 11.8099 57.4638 11.9965C57.6327 12.1113 57.7684 12.2686 57.8572 12.4525C57.9461 12.6364 57.985 12.8405 57.9701 13.0442C57.9755 13.2496 57.9306 13.4532 57.8394 13.6373C57.7481 13.8215 57.6132 13.9804 57.4464 14.1004C57.0438 14.3679 56.5674 14.5023 56.0844 14.4847C54.7747 14.4881 54.059 13.8684 53.989 12.9081V12.9094ZM58.7209 9.88004V8.48139H59.882V9.87822H60.6503V10.7076H59.882V13.0387C59.882 13.3793 60.0566 13.4839 60.3272 13.4839H60.554C60.595 13.4853 60.636 13.4823 60.6763 13.475V14.3481C60.6126 14.3556 60.5484 14.3586 60.4843 14.357C60.3542 14.3658 60.17 14.3658 59.9343 14.3658C59.6449 14.3787 59.3585 14.3025 59.1137 14.1475C58.9813 14.0497 58.8759 13.9199 58.8072 13.7703C58.7385 13.6206 58.7088 13.456 58.7209 13.2919V10.7076H58.1009V9.87848L58.7209 9.88004ZM62.3963 8.28237V9.34748H61.2089V8.28237H62.3963ZM62.3963 9.88004V14.3588H61.2089V9.87848L62.3963 9.88004ZM63.4702 9.88004V8.48139H64.6313V9.87822H65.3996V10.7076H64.6313V13.0387C64.6313 13.3793 64.8059 13.4839 65.0765 13.4839H65.3036C65.3446 13.4853 65.3856 13.4823 65.4259 13.475V14.3481C65.3622 14.3556 65.298 14.3586 65.2339 14.357C65.1038 14.3658 64.9196 14.3658 64.6839 14.3658C64.3945 14.3787 64.1081 14.3025 63.8633 14.1475C63.7309 14.0497 63.6254 13.9199 63.5567 13.7703C63.488 13.6206 63.4584 13.456 63.4705 13.2919V10.7076H62.8505V9.87848L63.4702 9.88004ZM68.787 13.8346H68.7609C68.6225 14.0454 68.431 14.2161 68.2058 14.3294C67.9805 14.4428 67.7293 14.4949 67.4775 14.4805C66.4736 14.4805 65.9236 13.8606 65.9236 12.8654V9.87848H67.1021V12.6623C67.1021 13.186 67.329 13.4742 67.8441 13.4742C68.403 13.4742 68.7432 13.0551 68.7432 12.4614V9.87848H69.9306V14.3572H68.7859L68.787 13.8346ZM71.0046 9.88004V8.48139H72.1657V9.87822H72.934V10.7076H72.1657V13.0387C72.1657 13.3793 72.3403 13.4839 72.6109 13.4839H72.8377C72.8787 13.4853 72.9197 13.4823 72.96 13.475V14.3481C72.8963 14.3556 72.8321 14.3586 72.768 14.357C72.6379 14.3658 72.4537 14.3658 72.218 14.3658C71.9286 14.3787 71.6422 14.3025 71.3975 14.1475C71.265 14.0497 71.1596 13.9199 71.0909 13.7703C71.0222 13.6206 70.9925 13.456 71.0046 13.2919V10.7076H70.3846V9.87848L71.0046 9.88004ZM73.8334 13.8C73.4229 13.3369 73.207 12.7332 73.2308 12.1149C73.2171 11.4977 73.4388 10.8984 73.8508 10.4386C74.0528 10.2196 74.2987 10.0457 74.5725 9.92836C74.8463 9.81098 75.1418 9.75276 75.4396 9.75751C75.7533 9.74291 76.0658 9.80343 76.3513 9.93403C76.6368 10.0646 76.887 10.2615 77.081 10.5083C77.4824 11.0756 77.6822 11.761 77.6485 12.4552H74.4005C74.4965 13.1537 74.8634 13.5739 75.5453 13.5739C75.7301 13.5923 75.9158 13.5481 76.0725 13.4484C76.2293 13.3486 76.348 13.1991 76.4095 13.0239H77.5803C77.4988 13.4328 77.2725 13.7987 76.9429 14.0541C76.5425 14.3519 76.0534 14.5057 75.5546 14.4907C75.2351 14.5036 74.9164 14.4486 74.6196 14.3292C74.3229 14.2099 74.0548 14.029 73.8331 13.7984L73.8334 13.8ZM74.4182 11.6349H76.4088C76.4123 11.5085 76.3902 11.3827 76.3438 11.2652C76.2973 11.1476 76.2275 11.0407 76.1385 10.9509C76.0496 10.8612 75.9433 10.7904 75.8261 10.7429C75.709 10.6954 75.5835 10.6721 75.4571 10.6746C74.8283 10.673 74.5228 11.0396 74.418 11.6333L74.4182 11.6349ZM79.997 13.8C79.7827 13.5775 79.6145 13.3149 79.5021 13.0273C79.3897 12.7396 79.3353 12.4325 79.3421 12.1237C79.3298 11.4977 79.5652 10.8921 79.997 10.4386C80.2171 10.2169 80.4799 10.0422 80.7696 9.92507C81.0593 9.80799 81.3697 9.75098 81.6821 9.75751C81.9956 9.75184 82.3071 9.80921 82.598 9.92621C82.8889 10.0432 83.1534 10.2175 83.3757 10.4386C83.8014 10.8953 84.033 11.4995 84.0217 12.1237C84.0346 12.7456 83.8026 13.3476 83.3757 13.8C83.1551 14.024 82.8911 14.2007 82.5999 14.3193C82.3087 14.4378 81.9964 14.4958 81.6821 14.4897C81.3687 14.4965 81.0573 14.4387 80.7673 14.3197C80.4773 14.2008 80.215 14.0233 79.9967 13.7984L79.997 13.8ZM82.8169 12.1237C82.8169 11.242 82.4152 10.6569 81.6821 10.6569C80.9489 10.6569 80.5472 11.2417 80.5472 12.1237C80.5472 12.9968 80.9489 13.5806 81.6821 13.5806C82.4152 13.5806 82.8166 12.9953 82.8166 12.1221L82.8169 12.1237ZM84.7811 9.88004V9.47835C84.7633 9.25544 84.8068 9.0319 84.9068 8.83189C85.0068 8.63187 85.1595 8.463 85.3486 8.34351C85.7879 8.12201 86.2862 8.04559 86.7717 8.12523V9.04205C86.2128 9.01603 85.9685 9.07691 85.9685 9.54833V9.88004H86.7717V10.7357H85.9685V14.3588H84.7811V10.7342H84.17V9.87848L84.7811 9.88004ZM50.5842 16.2299V17.295H48.7071V22.4723H47.4412V17.295H45.5641V16.2299H50.5842ZM50.4541 21.9135C50.0436 21.4504 49.8278 20.8467 49.8516 20.2284C49.8379 19.6112 50.0595 19.0119 50.4716 18.5521C50.6735 18.3331 50.9195 18.1592 51.1934 18.0418C51.4672 17.9244 51.7628 17.8662 52.0607 17.871C52.3743 17.8564 52.6868 17.9169 52.9723 18.0475C53.2578 18.1781 53.508 18.375 53.702 18.6219C54.1035 19.1891 54.3032 19.8746 54.2695 20.5687H51.0208C51.1168 21.2672 51.4836 21.6874 52.1655 21.6874C52.3504 21.7058 52.5361 21.6616 52.6928 21.5619C52.8495 21.4622 52.9682 21.3127 53.0298 21.1374H54.2005C54.119 21.5464 53.8927 21.9122 53.5631 22.1677C53.1628 22.4654 52.6736 22.6192 52.1749 22.6042C51.8554 22.6173 51.5368 22.5625 51.24 22.4435C50.9433 22.3244 50.676 22.1438 50.4541 21.9135ZM51.039 19.7484H53.0295C53.0331 19.622 53.011 19.4963 52.9645 19.3787C52.9181 19.2612 52.8483 19.1542 52.7593 19.0645C52.6703 18.9747 52.564 18.9039 52.4469 18.8564C52.3298 18.8089 52.2042 18.7857 52.0778 18.7881C51.4485 18.7878 51.1438 19.1547 51.039 19.7484ZM55.1683 21.9135C54.7527 21.4559 54.5305 20.8551 54.5484 20.2372C54.5331 19.6187 54.7513 19.0171 55.1595 18.5521C55.3663 18.3298 55.6181 18.154 55.8981 18.0366C56.1781 17.9192 56.4799 17.8627 56.7834 17.871C57.2876 17.856 57.7813 18.0165 58.1803 18.325C58.5294 18.6307 58.7558 19.0525 58.8177 19.5124H57.6566C57.628 19.3169 57.5287 19.1387 57.3774 19.0115C57.2262 18.8844 57.0335 18.8172 56.836 18.8227C56.1114 18.8227 55.7534 19.3553 55.7534 20.237C55.7534 21.0927 56.0852 21.6512 56.8186 21.6512C56.9277 21.6614 57.0377 21.6497 57.1423 21.6169C57.2468 21.584 57.3438 21.5307 57.4275 21.46C57.5112 21.3892 57.5799 21.3025 57.6298 21.205C57.6796 21.1074 57.7095 21.0008 57.7177 20.8915H58.8624C58.8329 21.3543 58.6229 21.7869 58.2776 22.0964C57.8805 22.4378 57.3701 22.6184 56.8467 22.6027C56.534 22.6127 56.2228 22.5565 55.9335 22.4377C55.6441 22.3189 55.3837 22.1403 55.1683 21.9135ZM60.5376 18.5784C60.6677 18.3516 60.8581 18.1654 61.0878 18.0405C61.3175 17.9156 61.5774 17.8571 61.8385 17.8713C62.0478 17.8649 62.2562 17.9037 62.4492 17.9851C62.6422 18.0664 62.8155 18.1884 62.9572 18.3427C63.2442 18.6774 63.3967 19.1068 63.3849 19.5475V22.4723H62.1975V19.7221C62.2099 19.6151 62.1988 19.5066 62.1648 19.4043C62.1307 19.3021 62.0747 19.2085 62.0006 19.1303C61.9265 19.0521 61.8361 18.991 61.7359 18.9515C61.6356 18.912 61.5279 18.8949 61.4204 18.9015C60.8967 18.9015 60.5124 19.3118 60.5124 19.9318V22.4723H59.325V16.2299H60.5124V18.5784H60.5376ZM65.2521 18.6044C65.3824 18.3702 65.5758 18.1772 65.8104 18.0476C66.045 17.9179 66.3113 17.8567 66.5789 17.871C66.7883 17.8646 66.9966 17.9035 67.1897 17.9848C67.3827 18.0662 67.556 18.1881 67.6976 18.3424C67.9847 18.6771 68.1371 19.1065 68.1254 19.5473V22.472H66.938V19.7221C66.9504 19.6151 66.9392 19.5066 66.9052 19.4043C66.8712 19.3021 66.8152 19.2085 66.7411 19.1303C66.667 19.0521 66.5766 18.991 66.4764 18.9515C66.3761 18.912 66.2684 18.8949 66.1609 18.9015C65.6371 18.9015 65.2529 19.3118 65.2529 19.9318V22.4723H64.0655V17.9936H65.2266V18.6047L65.2521 18.6044ZM69.242 21.9132C69.0276 21.6908 68.8594 21.4282 68.747 21.1406C68.6346 20.8529 68.5803 20.5458 68.5872 20.237C68.5749 19.6109 68.8102 19.0053 69.242 18.5519C69.4621 18.3301 69.7249 18.1554 70.0146 18.0383C70.3043 17.9212 70.6147 17.8642 70.9271 17.8708C71.2406 17.8651 71.5521 17.9225 71.843 18.0395C72.134 18.1565 72.3984 18.3307 72.6208 18.5519C73.0464 19.0086 73.278 19.6128 73.2667 20.237C73.2796 20.8588 73.0476 21.4608 72.6208 21.9132C72.4001 22.1372 72.1362 22.3139 71.845 22.4325C71.5538 22.5511 71.2414 22.6091 70.9271 22.6029C70.6138 22.6101 70.3023 22.5526 70.0123 22.434C69.7222 22.3153 69.4605 22.1379 69.242 21.9132ZM72.0619 20.237C72.0619 19.3553 71.6602 18.7702 70.9271 18.7702C70.1939 18.7702 69.7922 19.355 69.7922 20.237C69.7922 21.1101 70.1939 21.6939 70.9271 21.6939C71.6602 21.6939 72.0619 21.1101 72.0619 20.237ZM74.969 16.2304V22.4726H73.7816V16.2299L74.969 16.2304ZM76.1398 21.914C75.9254 21.6916 75.7572 21.429 75.6448 21.1413C75.5324 20.8536 75.4781 20.5465 75.4849 20.2377C75.4726 19.6117 75.708 19.0061 76.1398 18.5527C76.3599 18.3309 76.6227 18.1562 76.9124 18.0391C77.202 17.922 77.5125 17.865 77.8248 17.8715C78.1384 17.8659 78.4499 17.9232 78.7408 18.0402C79.0317 18.1572 79.2962 18.3315 79.5185 18.5527C79.9442 19.0094 80.1758 19.6135 80.1645 20.2377C80.1774 20.8596 79.9454 21.4616 79.5185 21.914C79.2979 22.138 79.0339 22.3147 78.7427 22.4333C78.4515 22.5519 78.1392 22.6099 77.8248 22.6037C77.5113 22.6109 77.1997 22.5533 76.9095 22.4345C76.6193 22.3158 76.3567 22.1384 76.1382 21.9135L76.1398 21.914ZM78.9597 20.2377C78.9597 19.356 78.558 18.7709 77.8248 18.7709C77.0917 18.7709 76.69 19.3558 76.69 20.2377C76.69 21.1109 77.0917 21.6947 77.8248 21.6947C78.558 21.6947 78.9581 21.1103 78.9581 20.2372L78.9597 20.2377ZM80.5399 22.6037H81.7185C81.8145 22.8831 82.059 23.1014 82.6176 23.1014C83.281 23.1014 83.613 22.7957 83.613 22.1671V21.6783H83.587C83.4465 21.8512 83.2673 21.9886 83.064 22.0796C82.8606 22.1706 82.6388 22.2125 82.4162 22.202C82.1641 22.2036 81.9143 22.1542 81.6818 22.0566C81.4493 21.9591 81.2389 21.8155 81.0634 21.6346C80.8582 21.4289 80.6973 21.1834 80.5906 20.9131C80.484 20.6428 80.4339 20.3536 80.4434 20.0632C80.4203 19.4806 80.6166 18.9105 80.9934 18.4655C81.1674 18.2712 81.3819 18.1173 81.6217 18.0147C81.8615 17.9122 82.1209 17.8634 82.3816 17.8718C82.6213 17.8599 82.8602 17.9079 83.0767 18.0116C83.2931 18.1153 83.4803 18.2713 83.6213 18.4655H83.6388V17.9941H84.7835V22.1323C84.801 22.3846 84.7623 22.6376 84.6702 22.8731C84.5781 23.1086 84.4349 23.3208 84.2509 23.4942C83.7944 23.8583 83.2185 24.0389 82.6358 24.0005C81.3938 24 80.6692 23.4763 80.5384 22.6032L80.5399 22.6037ZM83.4296 20.8926C83.6021 20.6416 83.688 20.3412 83.6741 20.0369C83.6852 19.7304 83.593 19.429 83.4122 19.1812C83.3156 19.0629 83.1927 18.9688 83.0532 18.9067C82.9137 18.8445 82.7616 18.8159 82.609 18.8232C81.9979 18.8232 81.605 19.2861 81.605 20.046C81.605 20.8143 81.9979 21.2508 82.6179 21.2508C82.7716 21.2586 82.9251 21.2301 83.0658 21.1677C83.2065 21.1052 83.3306 21.0105 83.428 20.8913L83.4296 20.8926ZM86.0138 23.0054C86.4941 23.0054 86.6772 22.7697 86.6772 22.3943C86.6746 22.2434 86.6512 22.0936 86.6075 21.9491C86.5464 21.767 86.4678 21.5214 86.3369 21.1808L85.1321 17.9943H86.3809L87.0443 20.0111C87.1141 20.2206 87.1744 20.4563 87.2363 20.6571C87.2623 20.7706 87.2975 20.8754 87.3323 20.9888H87.3498C87.3758 20.8754 87.4018 20.7706 87.4278 20.6571C87.4775 20.4389 87.5383 20.2232 87.6099 20.0111L88.2385 17.9943H89.4352L87.8724 22.5865C87.7713 22.9786 87.5732 23.3389 87.2962 23.6342C87.0138 23.8625 86.6538 23.9721 86.2922 23.9399H85.5944V23.0056L86.0138 23.0054ZM22.4739 22.4728H27.4677V7.49068H22.4723L22.4739 22.4728ZM29.9646 4.9944H42.4491V0H29.963L29.9646 4.9944ZM22.4723 0H27.4662V4.99388H22.4723V0ZM14.9816 22.4723H19.9755V0H14.9814L14.9816 22.4723ZM7.49094 17.4784H12.4848V0H7.49068L7.49094 17.4784ZM0 22.4723H4.99388V0H0V22.4723ZM29.963 22.4723H34.9569V7.49068H29.963V22.4723Z" fill="#ADB5BD" />
  </g>
  <defs>
    <clipPath id="clip0_7_444">
      <rect width="104.066" height="24" fill="white" />
    </clipPath>
  </defs>
</svg>