<svg width="37" height="24" viewBox="0 0 37 24" fill="none" xmlns="http://www.w3.org/2000/svg">
  <g clip-path="url(#clip0_7_395)">
    <path d="M12.6239 12.5983V15.132V17.0161V19.5498V21.4663V24H15.1539H24.0091V21.4663H15.1539V19.5498H22.1088V17.0161H15.1539V15.132H24.0091V12.5983H15.1539H12.6239Z" fill="#ADB5BD" />
    <path d="M32.1878 12.5983H29.6577H25.2302V15.132H29.6577V24H32.1878V15.132H36.6154V12.5983H32.1878Z" fill="#ADB5BD" />
    <path d="M11.3852 8.86804H0.417106L11.3852 5.06428V2.53372V2.38311V0H0V2.53372H10.9509L0 6.33114V8.86804V9.01267V11.4018H11.3852V8.86804Z" fill="#ADB5BD" />
    <path d="M8.87274 23.5823L5.07451 12.5983H2.54762H2.39723H0.0175781V24H2.54762V13.0332L6.33953 24H8.87274H9.01716H11.4028V12.5983H8.87274V23.5823Z" fill="#ADB5BD" />
    <path d="M23.9915 5.70792V5.6949C23.9915 2.55484 21.4408 0 18.3049 0H12.6063V11.4018H18.3063C21.4411 11.4018 23.9915 8.84762 23.9915 5.70792ZM15.1364 2.53372H18.3049C19.1418 2.53466 19.9442 2.868 20.5359 3.46064C21.1277 4.05326 21.4606 4.8568 21.4615 5.6949V5.70792C21.4606 6.5457 21.128 7.34896 20.5364 7.9414C19.9449 8.53387 19.1429 8.86712 18.3063 8.86804H15.1364V2.53372Z" fill="#ADB5BD" />
  </g>
  <defs>
    <clipPath id="clip0_7_395">
      <rect width="36.6154" height="24" fill="white" />
    </clipPath>
  </defs>
</svg>