<svg width="16" height="16" viewBox="0 0 16 16" fill="none" xmlns="http://www.w3.org/2000/svg">
  <path d="M14.9487 6.07879C14.8862 5.88661 14.7682 5.71724 14.6096 5.59201C14.451 5.46677 14.2589 5.39128 14.0575 5.37504L10.37 5.07754L8.94623 1.63441C8.86923 1.4468 8.73819 1.28632 8.56975 1.17337C8.40131 1.06043 8.20309 1.00012 8.00029 1.00012C7.79749 1.00012 7.59928 1.06043 7.43084 1.17337C7.2624 1.28632 7.13135 1.4468 7.05436 1.63441L5.63186 5.07691L1.94248 5.37504C1.74072 5.3921 1.54847 5.46833 1.38984 5.59416C1.23121 5.72 1.11323 5.88986 1.05071 6.08244C0.988178 6.27503 0.983875 6.48179 1.03833 6.67682C1.09279 6.87184 1.2036 7.04645 1.35686 7.17879L4.16936 9.60566L3.31248 13.2344C3.2652 13.4314 3.27738 13.638 3.34747 13.8282C3.41756 14.0183 3.54241 14.1833 3.70627 14.3025C3.87013 14.4217 4.06563 14.4896 4.26808 14.4978C4.47053 14.5059 4.67085 14.4538 4.84373 14.3482L7.99998 12.4057L11.1581 14.3482C11.331 14.4532 11.531 14.5048 11.7331 14.4964C11.9352 14.4879 12.1303 14.4199 12.2939 14.3008C12.4574 14.1817 12.582 14.0169 12.652 13.8272C12.7221 13.6374 12.7344 13.4312 12.6875 13.2344L11.8275 9.60503L14.64 7.17816C14.7945 7.04605 14.9063 6.87106 14.9613 6.67535C15.0162 6.47964 15.0119 6.27202 14.9487 6.07879ZM13.99 6.42066L10.9462 9.04566C10.8768 9.10549 10.8252 9.18324 10.797 9.27043C10.7687 9.35762 10.765 9.45088 10.7862 9.54004L11.7162 13.465C11.7186 13.4704 11.7189 13.4766 11.7169 13.4822C11.7149 13.4877 11.7109 13.4923 11.7056 13.495C11.6944 13.5038 11.6912 13.5019 11.6819 13.495L8.26186 11.3919C8.18299 11.3438 8.09235 11.3185 7.99998 11.3188V2.00004C8.01498 2.00004 8.01686 2.00504 8.02186 2.01629L9.56248 5.74129C9.59765 5.82643 9.65566 5.9002 9.7301 5.95447C9.80455 6.00873 9.89253 6.04137 9.98436 6.04879L13.9787 6.37129C13.9887 6.37129 13.9944 6.37129 14 6.38941C14.0056 6.40754 14 6.41441 13.99 6.42066Z" fill="#FAB005" />
</svg>