<svg width="48" height="48" viewBox="0 0 48 48" fill="none" xmlns="http://www.w3.org/2000/svg">
  <path d="M3.006 13.9545C3.08214 12.217 3.82595 10.576 5.08237 9.37351C6.3388 8.17102 8.01087 7.49988 9.75 7.5H38.25C39.9891 7.49988 41.6612 8.17102 42.9176 9.37351C44.1741 10.576 44.9179 12.217 44.994 13.9545L42.78 15.1845L24 25.296L5.22 15.1845L3.006 13.9545ZM3 17.382V33.75C3 35.5402 3.71116 37.2571 4.97703 38.523C6.2429 39.7888 7.95979 40.5 9.75 40.5H38.25C40.0402 40.5 41.7571 39.7888 43.023 38.523C44.2888 37.2571 45 35.5402 45 33.75V17.382L44.211 17.8215L24.711 28.3215C24.4925 28.4391 24.2482 28.5007 24 28.5007C23.7518 28.5007 23.5075 28.4391 23.289 28.3215L3.771 17.811L3 17.382Z" fill="#ADB5BD" />
</svg>